<svg version="1.1" xmlns="http://www.w3.org/2000/svg" xmlns:xlink="http://www.w3.org/1999/xlink" width="100px" height="100px" viewBox="0,0,256,256"><g fill="none" fill-rule="nonzero" stroke="none" stroke-width="1" stroke-linecap="butt" stroke-linejoin="miter" stroke-miterlimit="10" stroke-dasharray="" stroke-dashoffset="0" font-family="none" font-weight="none" font-size="none" text-anchor="none" style="mix-blend-mode: normal"><g transform="scale(2.56,2.56)"><path d="M80,86h-48c-2.209,0 -4,-1.791 -4,-4v-66c0,-1.105 0.895,-2 2,-2h52c1.105,0 2,0.895 2,2v66c0,2.209 -1.791,4 -4,4z" fill="#eeecd9"></path><path d="M28.5,36.5h0.5l3,-2l3,2l3,-2l3,2l3,-2l3,2l3,-2l3,2l3,-2l3,2l3,-2l3,2l3,-2l3,2l3,-2l3,2l3,-2l3,2h0.5v-6.5h-55z" fill="#fefdef"></path><path d="M84,30v-14c0,-1.105 -0.895,-2 -2,-2h-52c-1.105,0 -2,0.895 -2,2v14z" fill="#677eed"></path><circle cx="39.5" cy="22.5" r="3" fill="#bea9b2"></circle><circle cx="72.5" cy="22.5" r="3" fill="#bea9b2"></circle><g fill="#1f212b"><path d="M80,87h-48c-2.757,0 -5,-2.243 -5,-5v-66c0,-1.654 1.346,-3 3,-3h52c1.654,0 3,1.346 3,3v66c0,2.757 -2.243,5 -5,5zM30,15c-0.552,0 -1,0.449 -1,1v66c0,1.654 1.346,3 3,3h48c1.654,0 3,-1.346 3,-3v-66c0,-0.551 -0.448,-1 -1,-1z"></path><path d="M53,47.289c0,-0.284 0.096,-0.542 0.289,-0.776c0.06,-0.072 2.923,-4.021 2.923,-4.021c0.243,-0.328 0.518,-0.492 0.828,-0.492c0.243,0 0.463,0.077 0.662,0.23c0.199,0.153 0.298,0.35 0.298,0.591v21.325c0,0.262 -0.11,0.471 -0.331,0.624c-0.221,0.154 -0.475,0.23 -0.762,0.23c-0.309,0 -0.569,-0.076 -0.778,-0.23c-0.21,-0.153 -0.315,-0.362 -0.315,-0.624v-18.434l-1.324,2.135c-0.177,0.263 -0.386,0.394 -0.629,0.394c-0.243,0 -0.447,-0.093 -0.612,-0.279c-0.166,-0.185 -0.249,-0.41 -0.249,-0.673z"></path><path d="M39.5,26c-1.93,0 -3.5,-1.57 -3.5,-3.5c0,-1.93 1.57,-3.5 3.5,-3.5c1.93,0 3.5,1.57 3.5,3.5c0,1.93 -1.57,3.5 -3.5,3.5zM39.5,20c-1.379,0 -2.5,1.122 -2.5,2.5c0,1.378 1.121,2.5 2.5,2.5c1.379,0 2.5,-1.122 2.5,-2.5c0,-1.378 -1.121,-2.5 -2.5,-2.5z"></path><path d="M72.5,26c-1.93,0 -3.5,-1.57 -3.5,-3.5c0,-1.93 1.57,-3.5 3.5,-3.5c1.93,0 3.5,1.57 3.5,3.5c0,1.93 -1.57,3.5 -3.5,3.5zM72.5,20c-1.379,0 -2.5,1.122 -2.5,2.5c0,1.378 1.121,2.5 2.5,2.5c1.379,0 2.5,-1.122 2.5,-2.5c0,-1.378 -1.121,-2.5 -2.5,-2.5z"></path><path d="M70.5,31h-42c-0.276,0 -0.5,-0.224 -0.5,-0.5c0,-0.276 0.224,-0.5 0.5,-0.5h42c0.276,0 0.5,0.224 0.5,0.5c0,0.276 -0.224,0.5 -0.5,0.5z"></path><path d="M74.5,31h-1c-0.276,0 -0.5,-0.224 -0.5,-0.5c0,-0.276 0.224,-0.5 0.5,-0.5h1c0.276,0 0.5,0.224 0.5,0.5c0,0.276 -0.224,0.5 -0.5,0.5z"></path><path d="M83.5,31h-6c-0.276,0 -0.5,-0.224 -0.5,-0.5c0,-0.276 0.224,-0.5 0.5,-0.5h6c0.276,0 0.5,0.224 0.5,0.5c0,0.276 -0.224,0.5 -0.5,0.5z"></path><path d="M83.5,37h-0.5c-0.099,0 -0.195,-0.029 -0.277,-0.084l-2.723,-1.815l-2.723,1.815c-0.168,0.112 -0.387,0.112 -0.555,0l-2.722,-1.815l-2.723,1.815c-0.168,0.112 -0.387,0.112 -0.555,0l-2.722,-1.815l-2.723,1.815c-0.168,0.112 -0.387,0.112 -0.555,0l-2.722,-1.815l-2.723,1.815c-0.168,0.112 -0.387,0.112 -0.555,0l-2.722,-1.815l-2.723,1.815c-0.168,0.112 -0.387,0.112 -0.555,0l-2.722,-1.815l-2.723,1.815c-0.168,0.112 -0.387,0.112 -0.555,0l-2.722,-1.815l-2.723,1.815c-0.168,0.112 -0.387,0.112 -0.555,0l-2.722,-1.815l-2.723,1.815c-0.168,0.112 -0.387,0.112 -0.555,0l-2.722,-1.815l-2.723,1.815c-0.082,0.055 -0.178,0.084 -0.277,0.084h-0.5v-1h0.349l2.874,-1.916c0.168,-0.112 0.387,-0.112 0.555,0l2.722,1.815l2.723,-1.815c0.168,-0.112 0.387,-0.112 0.555,0l2.722,1.815l2.723,-1.815c0.168,-0.112 0.387,-0.112 0.555,0l2.722,1.815l2.723,-1.815c0.168,-0.112 0.387,-0.112 0.555,0l2.722,1.815l2.723,-1.815c0.168,-0.112 0.387,-0.112 0.555,0l2.722,1.815l2.723,-1.815c0.168,-0.112 0.387,-0.112 0.555,0l2.722,1.815l2.723,-1.815c0.168,-0.112 0.387,-0.112 0.555,0l2.722,1.815l2.723,-1.815c0.168,-0.112 0.387,-0.112 0.555,0l2.722,1.815l2.723,-1.815c0.168,-0.112 0.387,-0.112 0.555,0l2.873,1.916h0.349z"></path><path d="M67.5,76h-23c-0.276,0 -0.5,-0.224 -0.5,-0.5c0,-0.276 0.224,-0.5 0.5,-0.5h23c0.276,0 0.5,0.224 0.5,0.5c0,0.276 -0.224,0.5 -0.5,0.5z"></path><path d="M61.5,71h-24c-0.276,0 -0.5,-0.224 -0.5,-0.5c0,-0.276 0.224,-0.5 0.5,-0.5h24c0.276,0 0.5,0.224 0.5,0.5c0,0.276 -0.224,0.5 -0.5,0.5z"></path><path d="M74.406,71h-9.906c-0.276,0 -0.5,-0.224 -0.5,-0.5c0,-0.276 0.224,-0.5 0.5,-0.5h9.906c0.276,0 0.5,0.224 0.5,0.5c0,0.276 -0.223,0.5 -0.5,0.5z"></path></g><g><path d="M46.502,18.5l-41.282,28.861c-1.726,1.207 -2.231,3.54 -1.158,5.353l16.445,27.786l33.993,-49l-2,-2.5l1,-3.5l-2.999,-1v-3h-2.999z" fill="#fefdef"></path><path d="M20.507,81c-0.006,0 -0.012,0 -0.018,0c-0.171,-0.006 -0.326,-0.098 -0.413,-0.245l-16.444,-27.786c-1.199,-2.026 -0.627,-4.669 1.303,-6.018l41.281,-28.86c0.129,-0.091 0.292,-0.115 0.443,-0.065c0.149,0.049 0.268,0.167 0.317,0.316l0.885,2.658h2.64c0.276,0 0.5,0.224 0.5,0.5v2.64l2.657,0.886c0.254,0.084 0.396,0.354 0.322,0.611l-0.929,3.252l1.839,2.298c0.138,0.173 0.146,0.416 0.021,0.598l-33.993,49c-0.094,0.135 -0.248,0.215 -0.411,0.215zM46.239,19.294l-40.732,28.476c-1.503,1.051 -1.948,3.111 -1.014,4.689l16.047,27.116l33.337,-48.053l-1.768,-2.209c-0.101,-0.126 -0.135,-0.294 -0.09,-0.45l0.868,-3.04l-2.545,-0.849c-0.204,-0.068 -0.342,-0.259 -0.342,-0.474v-2.5h-2.5c-0.215,0 -0.406,-0.138 -0.475,-0.342z" fill="#1f212b"></path></g></g></g></svg>