<svg xmlns="http://www.w3.org/2000/svg" viewBox="0 0 511.56 532.45"><defs><style>.cls-1{fill:#2f2e41;}.cls-2{fill:#ffb6b6;}.cls-3{opacity:0.1;isolation:isolate;}.cls-4{fill:#e6e6e6;}.cls-5{fill:#fff;}.cls-6{fill:#3f3d56;}.cls-7{fill:#6c63ff;}</style></defs><title>AchievementAsset 1PIC</title><g id="Layer_2" data-name="Layer 2"><g id="Layer_1-2" data-name="Layer 1"><polygon class="cls-1" points="454.49 405.21 454.48 405.45 466.49 532.45 378.85 532.45 367.49 454.45 362.49 530.45 272.49 529.45 282.05 429.67 290.18 383.42 290.18 383.41 291.4 376.45 452.1 376.45 452.31 378.97 454.49 405.21"/><path class="cls-2" d="M222.88,478.83c9.28,1.69,19-8.76,21.62-23.35a37.1,37.1,0,0,0-.78-17.5l1.42-8.41L269,316.46s44-88,44-103.25-12.73-22.76-12.73-22.76l-17.21.16-54,131.85-9.73,97.43-1.57,13.36a37.08,37.08,0,0,0-6.9,16.11c-2.66,14.58,2.71,27.78,12,29.47Z"/><polygon class="cls-2" points="397.99 135.95 381.99 98.95 329.99 107.95 326.49 151.48 397.99 135.95"/><polygon class="cls-3" points="397.99 135.95 381.99 98.95 329.99 107.95 326.49 151.48 397.99 135.95"/><path class="cls-4" d="M511,213s-37-69-44-76c-3.11-3.12-8-3.16-12.49-2.25L403,117l-17.46-9.81-1.15,18.66-57.31,10.29c.32-11.38,1.92-15.71,1.92-15.71L308,145l-41,20,0,.18a16.31,16.31,0,0,0-8,5.82c-8,11-30,145-30,145l47,10,6.4-40.14L287,322l3.5,67.5s64,55,95,35,69-19,69-19l.95-31.29c.67-1.08,1.05-1.71,1.05-1.71l-1-111V231.93c7.62,10.62,16.81,19.74,27.5,24C518,270,511,213,511,213Z"/><circle class="cls-2" cx="350.56" cy="66.62" r="47.84"/><path class="cls-1" d="M384.87,80.14S389,65.58,398.39,66.62s11.44-7.28,9.36-11.44-6.24-25-6.24-25,2.08-14.56-10.4-16.64S374.48,9.42,372.4,5.26s-33.28-8.32-43.68-2.08-18.72,18.21-26,21.59-13.52,9.61-9.36,20,10.19,30.74,10.19,30.74,10.61-3.7,12.69,2.54S310,76,320.4,59.34s10.4-33.28,27-27,35.35,4.16,33.27,16.64S384.87,80.14,384.87,80.14Z"/><path class="cls-5" d="M382,459.38H18.63A18.65,18.65,0,0,1,0,440.75v-193a18.66,18.66,0,0,1,18.63-18.64H382a18.66,18.66,0,0,1,18.63,18.64v193A18.65,18.65,0,0,1,382,459.38Z"/><path class="cls-6" d="M382,459.38H18.63A18.65,18.65,0,0,1,0,440.75v-193a18.66,18.66,0,0,1,18.63-18.64H382a18.66,18.66,0,0,1,18.63,18.64v193A18.65,18.65,0,0,1,382,459.38ZM18.63,232.24A15.53,15.53,0,0,0,3.11,247.76v193a15.53,15.53,0,0,0,15.52,15.52H382a15.53,15.53,0,0,0,15.52-15.52v-193A15.53,15.53,0,0,0,382,232.24Z"/><path class="cls-7" d="M332.13,322.47v6.23H26.45a3.14,3.14,0,0,1-3.11-3.12,3.12,3.12,0,0,1,3.11-3.11Z"/><path class="cls-4" d="M371.8,310.8H340.68a6.22,6.22,0,0,1,0-12.44H371.8a6.22,6.22,0,1,1,0,12.44Z"/><path class="cls-4" d="M168,278.13H28.78a6.22,6.22,0,0,1,0-12.44H168a6.22,6.22,0,1,1,0,12.44Z"/><path class="cls-7" d="M212.33,392.48v6.23H26.45a3.14,3.14,0,0,1-3.11-3.11,3.12,3.12,0,0,1,3.11-3.12Z"/><path class="cls-4" d="M371.8,380.82H340.68a6.23,6.23,0,0,1,0-12.45H371.8a6.23,6.23,0,0,1,0,12.45Z"/><ellipse class="cls-7" cx="426.27" cy="70.44" rx="48.73" ry="47.7"/><path class="cls-5" d="M442.81,46.38,423.35,81.82q-6.19-11-12.39-21.92c-1.43-2.53-5.33-.26-3.89,2.27,4.8,8.46,9.56,17,14.36,25.41a2.27,2.27,0,0,0,3.89,0Q436,68.13,446.7,48.65C448.1,46.11,444.21,43.84,442.81,46.38Z"/><path class="cls-2" d="M493.54,196.17,445,173S443,157.4,433.94,151.86c-1.55-3.69-3.33-7.75-4.95-11-4-8,2-23-3-23s-12.39,15.77-12,20c.3,3.24,3,8.9,3.54,13.86a42.68,42.68,0,0,0-14.25,9.38,10.53,10.53,0,0,0-2.75,10.51C403.7,182.55,411.62,205,423,205c15,0,19-3,19-3s31,39,54,42-2.45-47.78-2.45-47.78Z"/></g></g></svg>