<svg version="1.1" xmlns="http://www.w3.org/2000/svg" xmlns:xlink="http://www.w3.org/1999/xlink" width="64px" height="64px" viewBox="0,0,256,256"><g fill="#4d5cfc" fill-rule="nonzero" stroke="none" stroke-width="1" stroke-linecap="butt" stroke-linejoin="miter" stroke-miterlimit="10" stroke-dasharray="" stroke-dashoffset="0" font-family="none" font-weight="none" font-size="none" text-anchor="none" style="mix-blend-mode: normal"><g transform="scale(4,4)"><path d="M13.5,11c-1.933,0 -3.5,1.567 -3.5,3.5v0.5c0,1.933 1.5,4 3.5,4c2,0 3.5,-2.067 3.5,-4v-0.5c0,-1.933 -1.567,-3.5 -3.5,-3.5zM19,11v4h35v18l-4.33008,0.20313l0.83008,-1.45312l-1,-1.75h-5.5v3.46875l-22,1.03125v3.5h36v-27zM33.41016,19c-0.13198,-0.00389 -0.26573,0.01856 -0.39648,0.07031l-1.18359,0.46875l-0.66016,-0.05859c-0.316,-0.028 -0.62594,0.09598 -0.83594,0.33398l-0.84961,0.96289l-4.62305,1.91992c0,0 -4.97519,-0.87486 -6.24219,-1.13086c-1.271,-0.257 -3.32811,-0.29297 -5.03711,-0.29297c-2.698,0 -5.06277,0.63608 -6.38477,1.08008c-0.684,0.23 -1.19108,0.80567 -1.33008,1.51367l-1.69922,8.67969c-0.216,1.101 0.03908,2.24058 0.70508,3.14258l2.6543,1.5957l-0.29102,16.71484h4.97852l0.86914,-11.72656h1l0.91602,11.72656h5v-27l5.50781,0.44727c0.396,0.003 0.78423,-0.11208 1.11523,-0.33008l7.67773,-5.05078c0.388,-0.256 0.54867,-0.74369 0.38867,-1.17969l-0.36914,-1.23242c-0.1455,-0.396 -0.5142,-0.64262 -0.91016,-0.6543zM28,40c-1.933,0 -3.5,1.59264 -3.5,3.55664c0,2.444 1.512,4.44336 3.5,4.44336c2.126,0 3.5,-1.99936 3.5,-4.44336c0,-1.964 -1.567,-3.55664 -3.5,-3.55664zM40,40c-1.933,0 -3.5,1.59264 -3.5,3.55664c0,2.444 1.512,4.44336 3.5,4.44336c2.126,0 3.5,-1.99936 3.5,-4.44336c0,-1.964 -1.567,-3.55664 -3.5,-3.55664zM52,40c-1.933,0 -3.5,1.59264 -3.5,3.55664c0,2.444 1.512,4.44336 3.5,4.44336c2.126,0 3.5,-1.99936 3.5,-4.44336c0,-1.964 -1.567,-3.55664 -3.5,-3.55664zM28,49c-1.722,0 -3.66142,0.79872 -4.85742,1.38672c-0.707,0.347 -1.14258,1.02281 -1.14258,1.75781v1.85547h12h12h12v-1.85547c0,-0.736 -0.43558,-1.41177 -1.14258,-1.75977c-1.196,-0.587 -3.13542,-1.38477 -4.85742,-1.38477c-1.722,0 -3.66142,0.79872 -4.85742,1.38672c-0.707,0.347 -1.14258,1.02281 -1.14258,1.75781c0,-0.736 -0.43558,-1.41177 -1.14258,-1.75977c-1.196,-0.587 -3.13542,-1.38477 -4.85742,-1.38477c-1.722,0 -3.66142,0.79872 -4.85742,1.38672c-0.707,0.347 -1.14258,1.02281 -1.14258,1.75781c0,-0.736 -0.43558,-1.41177 -1.14258,-1.75977c-1.196,-0.587 -3.13542,-1.38477 -4.85742,-1.38477z"></path></g></g></svg>