<svg xmlns="http://www.w3.org/2000/svg" viewBox="0 0 363.13 554.54"><defs><style>.cls-1,.cls-2,.cls-4,.cls-6,.cls-7{fill:none;}.cls-1,.cls-2,.cls-3,.cls-4,.cls-5,.cls-6,.cls-9{stroke:#000;}.cls-1{stroke-width:4.44px;}.cls-2{stroke-width:3.7px;}.cls-3{stroke-width:2.99px;}.cls-4{stroke-width:29.62px;}.cls-5{fill:#231f20;}.cls-5,.cls-6{stroke-width:22.22px;}.cls-7{stroke:#fff;stroke-width:2.81px;}.cls-8{fill:#fff;}.cls-9{stroke-width:0.89px;}</style></defs><title>cu_logoAsset 1PIC</title><g id="Layer_2" data-name="Layer 2"><g id="Layer_1-2" data-name="Layer 1"><path d="M29.17,423.45H335S310.84,536.54,182,536.54C182,536.54,76.53,552.34,29.17,423.45Z"/><path class="cls-1" d="M265.14,307.34c31.58,0,57.16-5.79,57.16-12.94s-25.58-12.94-57.16-12.94S208,287.26,208,294.4,233.57,307.34,265.14,307.34Z"/><path class="cls-1" d="M278,294.4c0-31.73-5.8-57.45-12.9-57.45s-12.87,25.72-12.87,57.45,5.74,57.44,12.87,57.44S278,326.14,278,294.4Z"/><path class="cls-1" d="M256,303.55c-22.32-22.41-36.34-44.71-31.3-49.76s27.19,9,49.53,31.46S310.58,330,305.55,335,278.35,326,256,303.55Z"/><path class="cls-1" d="M256,285.25c22.32-22.44,44.5-36.51,49.52-31.46s-9,27.35-31.29,49.76S229.73,340.08,224.73,335,233.71,307.7,256,285.25Z"/><polygon class="cls-2" points="99.42 349.14 149.28 333.36 149.28 262.8 99.42 280.42 49.52 262.8 49.52 333.36 99.42 349.14"/><line class="cls-2" x1="99.42" y1="280.42" x2="99.42" y2="347.52"/><polygon class="cls-3" points="130.19 415.72 43.33 415.72 86.76 390.03 130.19 415.72"/><polygon class="cls-3" points="226.09 415.72 139.25 415.72 182.68 390.11 226.09 415.72"/><polygon class="cls-3" points="320.39 415.72 233.52 415.72 276.94 389.82 320.39 415.72"/><path class="cls-4" d="M182,539.66c-91.57,0-179.59-75.58-165.78-258,0,0-2.95-62.47,46.23-204.84l-13.4,45.56s-22.94,54.72,1.09,67.72c0,0,82.22,69.63,107-175.26l51.36.05c21.77,246.71,105.84,174.27,105.84,174.27,19.4-13-.34-66.7-.34-66.7L299,76.81c51.83,142.37,47.91,204.91,47.91,204.91,13.79,182.44-74.25,258-165.8,258Z"/><line class="cls-5" x1="24.36" y1="214.13" x2="333.55" y2="214.13"/><line class="cls-5" x1="18.81" y1="372.6" x2="337.86" y2="372.6"/><line class="cls-6" x1="183.27" y1="209.11" x2="183.27" y2="379.95"/><path class="cls-7" d="M107.66,437.14l-18,16.73a31.9,31.9,0,0,0,36,0Z"/><path class="cls-7" d="M145.36,437.06l-18,16.71a31.9,31.9,0,0,0,36,0Z"/><path class="cls-7" d="M183.05,436.94,165,453.67a31.84,31.84,0,0,0,36,0Z"/><path class="cls-7" d="M220.54,437l-18,16.74a32,32,0,0,0,36.06,0Z"/><path class="cls-7" d="M258,437.08l-18,16.73a31.93,31.93,0,0,0,36.06,0Z"/><path class="cls-8" d="M81.13,467.14c-2.68,4.13,4,8.8.6,11.84-2.63,2.33-10.34,2.92-12.79.11-.94-1.06-.48-4.33.53-5.24l9.86-8.75-1.66-1.91.33-3.73,11.2,12.75L89,476Zm-2.89,2.46-7,6.21c-.22.22-.42.49-.17.78,1.27,1.44,6.43,1.38,7.77.06l.31-.35C78.3,474,77.67,472.08,78.24,469.6Z"/><path class="cls-8" d="M93.27,479.87l-6.7,7.67c-.42.49-.78,1.31-.18,1.85,1.51,1.32,4,.33,5.21-.76a3.24,3.24,0,0,1,.68-3.12c.9-1.06,2.82-1.65,4-.64,1.77,1.54.93,3.85-.39,5.35-1.68,1.92-2.81,1.84-4.73,2.9l.08-.17c0-.06,0-.15,0-.13.36.3-1.32,3.21-1.63,3.57-2.27,2.58-4.94,2.67-7.5.41-3.93-3.47-2.6-10.09.23-13.85L83,484.6c-.71,3.21-2.46,6.56.61,9.27,1,.88,3.8,2.22,4.93.89a9.56,9.56,0,0,0,.63-1.36c-1.54-.1-3.22-.14-4.46-1.23-4.74-4.15,4.55-11.8,6.57-14.06l-2.81-2.48-.16-3.76,11.16,9.84c.26.19.87-.17,1-.34.88-1-4.32-4.73-5.12-5.45-1.91-1.66-4.14-5.08-2.05-7.47a4.42,4.42,0,0,1,3-1.31l.77,1.94c-.59-.21-1.53-.53-2,.07l-.32.41c.75,2.49,2.46,3.32,4.3,4.94,2.78,2.44,5.06,5.36,2.33,8.9l.65.6.22,3.82Z"/><path class="cls-8" d="M114.93,496.09l-10.5,16.14-.9-4c1.57-2.43,3.24-4.81,4.82-7.22s2.56-7-.32-8.88a3.81,3.81,0,0,0-4-.37,5.86,5.86,0,0,1,1.36.71c1.43.94,2.73,3,1.64,4.68-1.34,2.09-4.55,2.77-6.79,3.42l-.76-4c1,0,5.52-.68,5.87-1.23.25-.35-.19-.92-.49-1.09-1.1-.73-2.78,0-3.94-.73s-1-2.69-.39-3.63c1.7-2.6,5.63-2.68,8-1.1,3.8,2.52,3.59,5.91,2.79,9.9a31.68,31.68,0,0,1,3.64-7.63l1.22-1.81.87,2.61a2.29,2.29,0,0,0-.72.66,5.59,5.59,0,0,0-.15.94,2.57,2.57,0,0,0,1.31,1l.76,3.76Z"/><path class="cls-8" d="M102.75,505.73c-1.43-.79-2.9-1.42-4.31-2.2-3-1.65-4.81-5.09-3-8.31a17.26,17.26,0,0,1,2.29-2.33l.54,1.62a2,2,0,0,0-.68.71c-2.66,4.78,8.69,6.39,9.63,12.4.48,3.09.9,3.28-.76,6.21l-.14.25C104.61,510.6,107.84,508.57,102.75,505.73Z"/><path class="cls-8" d="M123.09,500.26l-8.87,17.41-1.11-3.52L118.78,503c1.19-2.36,1.71-4.3-1.3-5.49l-1.31-3.71,3.49,1.78a3.7,3.7,0,0,1,1.51,2.77,20.09,20.09,0,0,1-.38,4h0c.08.06.11-.08.11-.09,1-2,.63-4.66,1.69-6.72a9.14,9.14,0,0,1,1.06-1.61l.66,1.26-.22,2.64,1.21.63,1.15,3.48Z"/><path class="cls-8" d="M140.16,507.65l-6.91,17.87c-1-1.36-.38-8.78-2.72-9.7h0c-.55.85-3.11.81-4,.45-1.89-.72-3-2.37-2.15-4.38,1-2.7,4-2.44,6.07-1.1,1.29-4.27-3.47-5-4.18-6.74s-1.33-3.65-2-5.49l17.85,7,1.53,3.46Zm-2.47-.86-6.88-2.7c1.17,1.7,2.45,4.14,2.18,6.31a8.32,8.32,0,0,1-.69,3.41,12.71,12.71,0,0,1,1.35,3.46Z"/><path class="cls-8" d="M164.31,504.79c-3.39-.66-5.11.62-7.18,3.12l.36,1.44,1.92.36,2.12,3.21-3.77-.75-3.58,18.72-2.2-3,3.15-16.26-2.52-.45L150.43,508l4.89.95c-.46-.77-1.09-1.39-.91-2.35.69-3.62,5.31-5.48,8.57-4.84,4.82.94,7.57,4.09,10.49,7.59l.38,2.46C171,508.78,168.59,505.62,164.31,504.79Z"/><path class="cls-8" d="M175.43,514.34l-1.74,19.26c-2.85-1.62-1.6-8.91-10.52-10.37l-2.47-3.88c3.44-1.88,8.1-4.45,11.86-5.23L160.7,513l-2.35-2.91,18.76,1.7,2.35,2.92Zm-3,4a28.75,28.75,0,0,0-6.5,2.51,15.17,15.17,0,0,1,5.79,5.42Z"/><path class="cls-8" d="M196.63,513.83l1,18.65-2.9-2.34-.51-11.25c-.1-1.49-2-3.46-3.32-3.91l-1.16.35-.43.68a4.89,4.89,0,0,1,2.9,3.79,2.74,2.74,0,0,1-2.6,2.64,3.12,3.12,0,0,1-2.91-1.69,3.59,3.59,0,0,1-2.75,2.07,2.89,2.89,0,0,1-3.09-2.58c-.08-1.35,1.53-3.85,2.87-4.27-1.74-1.82-2.15-1.39-4.82-1.2l-2.82-2.54L181,512a4.92,4.92,0,0,1,4.57,2.82c.66-1.21,2.67-3.16,4.07-3.25,3-.14,4.64,4.66,5.71,6.63a42.8,42.8,0,0,1-1.56-9l-.08-1.57c2.37,1.87,2.13,3.38,3.89,3.41l2.79,2.63Z"/><path class="cls-8" d="M198,533.19c-.83-1.86-5.49-3.09-7.41-2.83l-2.78-3.78c2-1.86,6.5-6,9.08-6.34a3.74,3.74,0,0,0,1.16-.41l2,13.89Zm-1.86-10c-1,.67-3.76,2.87-4.12,3.9,1.52,0,4,2,5,3Z"/><path class="cls-8" d="M208.4,503.26c-3.39.57-4.58,2.36-5.67,5.44l.85,1.24,1.93-.34,3.08,2.26-3.79.64L208,531.27l-3.12-2L202.16,513l-2.52.41-3.13-2.22,4.9-.85c-.71-.54-1.51-.93-1.66-1.87-.6-3.63,3.08-7,6.36-7.56,4.82-.8,8.5,1.19,12.44,3.46l1.23,2.18C216,504.68,212.7,502.53,208.4,503.26Z"/><path class="cls-8" d="M222.06,508.29l5.1,18.69c-3.27-.54-4.58-7.81-13.46-6l-3.67-2.8c2.54-2.93,6-7,9.3-9.05l-11.54,3.12-3.19-1.91,18.2-5,3.2,1.93Zm-1.43,4.81a31.06,31.06,0,0,0-5.21,4.6,15.32,15.32,0,0,1,7.31,3.07Z"/><path class="cls-8" d="M229.41,505.74l2.94,6.83c1.12-4.31,2.18-5.67,5.19-8.72l4.59,1a18.24,18.24,0,0,0,1.19,9.58,25,25,0,0,0,3,4.94l-2.36-.1a32.77,32.77,0,0,1-4.35-6.9,16.93,16.93,0,0,1-1.05-3.84,12.82,12.82,0,0,0-3.68,9.36l-4-1.53-4-9.49-1.86.79-3.51-1.45,17.91-7.72,3.59,1.44Z"/><path class="cls-8" d="M249.87,495.52c-1.62.93-2.52,2.41-1.51,4.17,1.71,3.11,4.37,5.49,6.13,8.6,1.28,2.31.22,6.85-2.13,8.19a1.24,1.24,0,0,1-1.69-.29c-.45-.87,3.17-2.63,1.07-6.36-1.24-2.21-3.61-3.63-4.91-5.94s-.91-3.83-.64-6.15L242,500.11l-3.72-1.05,9.21-5.2,3.77.95C250.84,495,250.32,495.25,249.87,495.52Z"/><path class="cls-8" d="M255.21,492l10.73,16.32-3.6-.76-6.88-10.45c-1.43-2.21-2.86-3.61-5.4-1.57l-3.83-.68,3.26-2.16a3.72,3.72,0,0,1,3.16,0,20.5,20.5,0,0,1,3.31,2.31h0c.07,0,0-.11-.05-.15-1.23-1.85-3.72-2.84-5-4.79a7.22,7.22,0,0,1-.86-1.71l1.4,0,2.18,1.51,1.16-.76,3.6.72Z"/><path class="cls-8" d="M271.57,479.47l12.2,14.73-3.69-.08-6.51-7.9a2.52,2.52,0,0,0-2.81-.26c-1.24,1,.22,2.12,1,2.81l-1.09,1.81a1.52,1.52,0,0,0-.28-.74c-1.08-1.29-3.49-.71-4.61.22a3,3,0,0,0-.47,4.24,2,2,0,0,0,2.29.43,1.73,1.73,0,0,1-.64-.54,2.37,2.37,0,0,1,.43-3.26c1.39-1.21,3.5,0,4.51,1.24.76.94-.5,3-1.23,3.57-2.45,2-5.77,2.11-7.89-.42-1.62-2-2.13-5.33,0-7.11a4.84,4.84,0,0,1,4-1.2c.18-.82.5-2.41,1.14-3,1.58-1.29,1.68-.63,3.14-.54.09.05.57.46.65.41s-.11-.15-.14-.2l-2.07-2.52-11.26,9.39-4-.19,16.19-13.53,4,.18Z"/><path class="cls-8" d="M283.92,466.26l14.31,12.91c-5.85.26-8.33-2.65-13.49,2.55l-4.48-.18a44.67,44.67,0,0,1,.27-7.13c-4.9,1.78-3.75,3.25-10.41,3.21l12.3-13.76,3.93-.29Zm4.25,18a2.4,2.4,0,0,1-.12-3.26,2.53,2.53,0,0,1,3.37-.37,2.4,2.4,0,0,1,.13,3.27A2.5,2.5,0,0,1,288.17,484.3Zm-6-16-3.62,4.05a25.74,25.74,0,0,1,5.55-.27c.11,2-.06,4,.21,6.1a11.21,11.21,0,0,1,7.19-1.44Z"/><path class="cls-9" d="M184,135.13c1,3.71,2,7.39,3.08,11.1a4.22,4.22,0,0,1,.41,2.13c-.42,2.43-1.68,4.14-2.63,6.13.66-1.36,1.31-2.72,2-4.06-.65,1.76-1.55,3.18-2.31,4.79.68-1.36,1.36-2.71,2-4a20.78,20.78,0,0,1-7,9.1,37.75,37.75,0,0,1-9.87,5.5c-.92.27-.81-.43-1.72-.42a10.76,10.76,0,0,1-1.82-4.41v-2.45c0,1.52,1.72,2.64,2.92,3.08,2.44.44,7-2.83,9.42-3.74,3.06-1.12,5.52-3.84,8-6.66-.65,1.32-1.33,2.67-2,4,.76-1.55,1.49-3,2.22-4.56-.65,1.37-1.36,2.7-2,4.08.7-1.72,1.57-3.2,2.33-4.8-.68,1.34-1.36,2.66-2,4a3.48,3.48,0,0,0,.31-2.1c-1.26-4.18-2.35-8.27-3.46-12.43Z"/><path class="cls-9" d="M185.46,153.8c2,2.1,4.47,2.25,6.26,5.13a1,1,0,0,1,0,.7,28.64,28.64,0,0,1-2.06,5.15c.55-1.44,1.14-2.9,1.7-4.33-.76,1.85-1.44,3.82-2.31,5.56-3.73,3.86-8,5.59-12.24,7.53a32.24,32.24,0,0,1-5.77,2.11c-2.63.61-10.67,2.33-12.57,1.87l-7.87-7c1.74,2.61,13.3,4.21,20.4,1.05,2.5-1.1,5.05-1.58,7.62-2.67,4.17-1.75,8.16-3.63,11.9-7.11a5.34,5.34,0,0,0,.84-1.32c-.56,1.45-1.15,2.89-1.7,4.33.68-1.71,1.14-3.73,2.12-5.11-.62,1.48-1.23,2.94-1.83,4.4-1.41-3.44-4.4-3.3-6.37-5.63Z"/><path class="cls-9" d="M202,131.68c0,3.1.89,5.73,1.63,8.44-.3,3-.65,6.07-1.95,8.4a27.66,27.66,0,0,1-3.81,5.39c-1.8,2-3.66,3.63-5.81,4-.35.06-.77.58-1.07-.92l2.47-3.62c.1.27.17.74.28.75,2.67.49,5.16-2.21,7.39-4.63-.64.9-1.28,1.81-1.9,2.72a20.72,20.72,0,0,0,1.83-8.47,7.16,7.16,0,0,0-.64-2.49,20.51,20.51,0,0,1-.93-5.93Z"/><path class="cls-9" d="M212.28,143.85a11,11,0,0,0-5.94,4.86c-1.69,3-3,6.27-4.9,9-3.09,4.38-6.75,6.7-10.64,7L188.68,169a13,13,0,0,0,7.63-3.48,22.6,22.6,0,0,0,4.21-5.33c1.36-2.33,2.4-4.81,3.73-7.14a11.38,11.38,0,0,1,5.91-4.89Z"/><path class="cls-9" d="M217.94,149.52c-4,8.49-8.79,15.85-15,20.23-5.67,4-11.3,5.87-17.19,5.56l2.52-3.59c8.81,0,18-3.66,24.86-13.64-.18.26-.43.49-.62.74a36.66,36.66,0,0,0,2.91-5.7Z"/><path class="cls-9" d="M186.38,170.58a20.11,20.11,0,0,1,2.32,3.14c-.31,2.25-1.61,3.92-2.55,5.82a20.6,20.6,0,0,1-4.73,1.64,4.94,4.94,0,0,1,.28-4,34.88,34.88,0,0,1,2.8-5.53c.81-1,1.74-1.19,2.62-1.76a29.86,29.86,0,0,1-4.63,7.79,62.06,62.06,0,0,1-10.76,11.39c-5.7,4.54-12.1,5.49-18.19,3.44L144,188c5.23,1.7,22.36,1.67,27.42-1.55,5.86-3.75,11-9.78,15.75-16.56a33.83,33.83,0,0,1-2.27,4.28c-.74.89-1.68.82-2.44,1.76a4.94,4.94,0,0,0-.71,1.25c.65-1.35,1.3-2.65,2-4a4.85,4.85,0,0,0-.14,3.63c1.65-.57,3.38-.5,4.95-2-.68,1.33-1.36,2.69-2,4,0-.32.24-.64.16-.87-.57-1.5-1.55-2-2.27-3.15Z"/><path class="cls-9" d="M179,130.74c2.23,3.76,5.44,1,7.37,0,2.45-1.33,3.8-5.52,5.4-8.69-.6,1.29-1.24,2.63-1.89,3.93a31.14,31.14,0,0,0,2.76-6.17c.44-1.51.61-3.15,1-4.69a36.5,36.5,0,0,0-2.43,5.11c.63-1.33,1.28-2.69,1.94-4-1.13,2.2-2.83,3.55-4.6,2.91a3.7,3.7,0,0,1-2.44-3c-.55-2.56.24-5.14.68-7.6-.61,1.29-1.23,2.55-1.85,3.84.75-1.54,1.5-3.07,2.21-4.62-.59,1.3-1.2,2.56-1.79,3.83,1.72-3.38,4.39-4.19,6.58-6.23l2.12-4.3c-1.73,1.46-3.54,2.35-5.2,4.17s-2.68,4.69-3.92,7.15c.62-1.29,1.24-2.55,1.85-3.84A18.67,18.67,0,0,0,184,120.39c1,3.41,3.7,3.94,5.51,2.17s2.82-4.55,4-7.19c-1.68,2.17-2.26,5.49-2.95,8.72a8.35,8.35,0,0,1-.54,1.6c.64-1.36,1.29-2.67,1.94-4-.82,1.62-1.62,3.37-2.41,5,.6-1.3,1.21-2.61,1.79-3.91-.81,1.53-1.66,3.08-2.88,3.63-1.95.86-5.84,3.42-7.1,0S181,56.49,181,56.49l-2.76,6.33S177.58,128.34,179,130.74Z"/><path class="cls-9" d="M164.17,111.27c.07,7.76.06,15.54.4,23.31a2.85,2.85,0,0,0,3.53,1.88,3.15,3.15,0,0,0,1.88-1.54c-.62,1.32-1.29,2.64-1.92,3.94.87-1.71,1.7-3.42,2.62-5.09-.64,1.27-1.28,2.54-1.88,3.81a33.63,33.63,0,0,1,3.09-5.72c-.64,1.25-1.29,2.53-1.94,3.76,1.3-2.17,2.22-5.18,3.84-6.77-.6,1.17-1.19,2.36-1.8,3.54.91-1.75,1.72-3.59,2.69-5.25a33.06,33.06,0,0,1-3.14,6.86c.66-1.29,1.29-2.53,1.93-3.82a52.78,52.78,0,0,1-2.59,5.57c.62-1.28,1.29-2.52,1.91-3.79-.26,1.81-1.07,3.4-1,5.36,1.55.12,3.4.26,4.4-2.21-.68,1.3-1.31,2.55-2,3.86.7-2.18,1.38-5.41.41-7.65a2.19,2.19,0,0,0-3,.61,42,42,0,0,1,2.37-4.47c.67-.93,1.57-1,2.33-1.81a28.54,28.54,0,0,0,3.29-4.47l-1.83,3.66c.05-.11.09-.24.16-.39l2.12-4.3c-2.13,5.2-4.88,9.74-8.44,11.78,1-3.24,2.9-6.45,5.15-4.92,1,2.17.33,5.09-.3,7.23-.84,2.77-1.94,5.3-3.52,6.82-1,.91-2.12.66-3.22.57A24.35,24.35,0,0,1,173.19,131c-.66,1.3-1.31,2.58-2,3.86a51.3,51.3,0,0,1,2.89-6c-.68,1.34-1.33,2.63-2,3.93a6.69,6.69,0,0,1,.48-1.37c-.22.31-.4.62-.61.92.61-1.18,1.2-2.37,1.8-3.54a47.19,47.19,0,0,1-3.84,6.77c.65-1.29,1.3-2.52,1.94-3.76a34,34,0,0,1-3.09,5.72c.6-1.27,1.24-2.54,1.88-3.81-.89,1.72-1.52,3.74-2.62,5.09.63-1.3,1.3-2.62,1.92-3.94-.94,1.75-1.58,4-2.85,5.2-1.47,1.3-3.22.85-4.57-.83-.53-7.8-.35-15.82-.46-23.71Z"/><path class="cls-9" d="M192.18,128.36c1.77,3.6,3.56,7.14,5.12,11-1.28,8.83-7.31,11.92-11.93,13.25l2.1-4.27a21.16,21.16,0,0,0,8.95-5.37c-.62,1.26-1.23,2.56-1.86,3.81a4.66,4.66,0,0,0,.57-3c-1.35-4.22-3.28-7.52-5-11.1Z"/><polyline class="cls-2" points="64.34 244.34 97.67 278.84 53.61 252.65"/><polyline class="cls-2" points="87.56 239.09 97.67 278.84 76.23 241.26"/><line class="cls-2" x1="98.88" y1="238.02" x2="99.16" y2="278.33"/><line class="cls-2" x1="99.92" y1="278.48" x2="110.85" y2="239.34"/><line class="cls-2" x1="121.78" y1="241.65" x2="100.39" y2="278.33"/><line class="cls-2" x1="133.03" y1="245.52" x2="101.33" y2="277.71"/><line class="cls-2" x1="145.03" y1="253.72" x2="99.16" y2="279.25"/></g></g></svg>