<svg xmlns="http://www.w3.org/2000/svg" viewBox="0 0 68.35 47.9"><defs><style>.cls-1{fill:#6c63ff;}.cls-2{opacity:0.2;isolation:isolate;}.cls-3{fill:#3f3d56;}</style></defs><title>PicAsset 1PIC</title><g id="Layer_2" data-name="Layer 2"><g id="Layer_1-2" data-name="Layer 1"><path class="cls-1" d="M45.9,42.67a76,76,0,0,1-22.22,5.22,2.54,2.54,0,0,1-2.53-1.57L14.62,30.06A2.5,2.5,0,0,1,16,26.8L56.83,10.39a2.51,2.51,0,0,1,3.25,1.39L66.61,28a2.49,2.49,0,0,1-.75,2.89A79.12,79.12,0,0,1,45.9,42.67Z"/><path class="cls-2" d="M59.61,12l1.1,2.72-19,16.63a2,2,0,0,1-1.28.49l-24.37.57-1-2.5a2,2,0,0,1,1.11-2.6L57,10.85A2,2,0,0,1,59.61,12Z"/><path class="cls-1" d="M39.85,28.42a2.66,2.66,0,0,1-.88.18l-36.41.84A2.5,2.5,0,0,1,0,27a2.46,2.46,0,0,1,.87-1.95L26.54,2.89A2.55,2.55,0,0,1,28,2.29L65.7,0a2.5,2.5,0,0,1,1.8,4.38L40.56,28A2.73,2.73,0,0,1,39.85,28.42Z"/><polygon class="cls-3" points="10.73 39.16 9.8 39.54 4.39 26.08 32.69 14.7 33.07 15.63 5.7 26.64 10.73 39.16"/><circle class="cls-3" cx="10.64" cy="40.28" r="2"/></g></g></svg>