<svg xmlns="http://www.w3.org/2000/svg" viewBox="0 0 782.64 518.46"><defs><style>.cls-1{fill:#f0f0f0;}.cls-2{fill:#f2f2f2;}.cls-3{fill:#fff;}.cls-4{fill:#fd6584;}.cls-5{fill:#e6e6e6;}.cls-6{fill:#6c63ff;}.cls-7{fill:#ffb8b8;}.cls-8{fill:#2f2e41;}.cls-9{fill:#3f3d56;}.cls-10{fill:#ffb6b6;}.cls-11{fill:#9e616a;}</style></defs><title>membershipAsset 1PIC</title><g id="Layer_2" data-name="Layer 2"><g id="Layer_1-2" data-name="Layer 1"><path class="cls-1" d="M168,302.9c-36.59-36-52.05-73.61-43.52-105.82,10.95-41.34,59.57-69.92,133.4-78.42l.27,2.37c-72.8,8.38-120.68,36.32-131.36,76.66-8.3,31.35,6.93,68.11,42.88,103.51Z"/><path class="cls-1" d="M521.07,430.76c-45.67,0-95.3-6.78-144.59-19.83-61-16.14-116.85-40.5-161.64-70.45l1.33-2c44.57,29.8,100.21,54.05,160.92,70.12C432,423.14,487.22,429.87,536.9,428.1l.09,2.38Q529.12,430.77,521.07,430.76Z"/><path class="cls-1" d="M625.84,415.76l-.77-2.27c40.85-13.81,66.39-36.05,73.88-64.33,9.52-36-11.16-77.67-58.22-117.47-47.3-40-115.51-73.19-192.06-93.46l.61-2.31c76.89,20.36,145.43,53.72,193,94,47.81,40.43,68.75,83,59,119.9C693.56,378.86,667.48,401.68,625.84,415.76Z"/><path class="cls-1" d="M250.79,431.76C161.05,392,91.9,340.33,56.08,286.37l2-1.32C93.65,338.63,162.43,390,251.76,429.58Z"/><path class="cls-1" d="M566.3,500.71q-13.89,0-28.25-.62l.11-2.38c71.43,3.09,134.46-5.46,182.27-24.73l.9,2.21C679.61,492,626.45,500.71,566.3,500.71Z"/><path class="cls-1" d="M514.23,120.8c-14.83-4.83-30.09-9.33-45.34-13.36-87.8-23.25-174.1-31.5-249.58-23.86l-.24-2.38c75.76-7.66,162.36.61,250.43,23.93,15.3,4.05,30.59,8.56,45.47,13.4Z"/><path class="cls-1" d="M111.94,306.48c-36.6-36-52-73.61-43.52-105.82,10.94-41.34,59.56-69.92,133.39-78.42l.28,2.37C129.28,133,81.4,160.93,70.73,201.27c-8.3,31.35,6.93,68.11,42.88,103.51Z"/><path class="cls-1" d="M465,434.34c-45.66,0-95.29-6.78-144.59-19.83-60.95-16.14-116.85-40.5-161.63-70.45l1.33-2C204.65,371.88,260.3,396.13,321,412.2c54.85,14.52,110.13,21.25,159.81,19.48l.09,2.38Q473,434.35,465,434.34Z"/><path class="cls-1" d="M569.75,419.34l-.76-2.27c40.84-13.81,66.39-36.05,73.88-64.33,9.51-35.95-11.16-77.67-58.22-117.47-47.3-40-115.51-73.19-192.06-93.46l.61-2.31c76.89,20.36,145.43,53.72,193,93.95,47.8,40.43,68.75,83,59,119.9C637.47,382.44,611.39,405.26,569.75,419.34Z"/><path class="cls-1" d="M194.71,435.34C105,395.54,35.82,343.91,0,290l2-1.32c35.57,53.58,104.36,104.91,193.68,144.53Z"/><path class="cls-1" d="M510.21,504.29q-13.87,0-28.24-.62l.1-2.39c71.44,3.1,134.46-5.45,182.28-24.72l.89,2.21C623.53,495.58,570.36,504.29,510.21,504.29Z"/><path class="cls-1" d="M458.15,124.38c-14.84-4.83-30.09-9.33-45.35-13.36C325,87.77,238.71,79.52,163.23,87.16L163,84.78c75.76-7.66,162.36.61,250.42,23.93,15.3,4.05,30.6,8.56,45.48,13.4Z"/><path class="cls-2" d="M40.68,242.56c17.15-19.23,44.5-30.95,69.29-23.94a118.71,118.71,0,0,0-46.32,67.06c-2.68,10.47-4.57,22.39-13.27,28.79-5.42,4-12.6,4.94-19.26,4s-13-3.5-19.18-6.07l-1.67.15C15.08,287.27,23.53,261.78,40.68,242.56Z"/><path class="cls-3" d="M109.9,219.16A101.45,101.45,0,0,0,56.69,251.8a43.59,43.59,0,0,0-7.37,11.54,25,25,0,0,0-1.48,13.11c.56,4.13,1.6,8.3,1.15,12.5a15.35,15.35,0,0,1-6.51,10.73c-4.35,3.18-9.59,4.61-14.76,5.82C22,306.85,16,308.16,11.32,312c-.56.46-1.25-.45-.68-.91,8.14-6.64,19.45-5.78,28.46-10.6,4.2-2.25,7.75-5.78,8.61-10.62.76-4.24-.32-8.54-.92-12.72a26.77,26.77,0,0,1,1-12.87,40.33,40.33,0,0,1,6.89-11.78A98.71,98.71,0,0,1,77.57,232,103.15,103.15,0,0,1,109.76,218c.71-.17.84,1,.14,1.13Z"/><path class="cls-3" d="M60.84,246.32a15.21,15.21,0,0,1-.46-19.7c.46-.57,1.36.12.9.69a14.1,14.1,0,0,0,.47,18.33C62.24,246.18,61.33,246.86,60.84,246.32Z"/><path class="cls-3" d="M47.28,274.39a29.35,29.35,0,0,0,20.39-6.46c.56-.46,1.25.45.68.91a30.52,30.52,0,0,1-21.23,6.67C46.39,275.46,46.55,274.34,47.28,274.39Z"/><path class="cls-3" d="M87.69,227a8.6,8.6,0,0,0,7,4.3c.73,0,.57,1.16-.16,1.12a9.64,9.64,0,0,1-7.7-4.74.58.58,0,0,1,.11-.79.57.57,0,0,1,.8.11Z"/><path class="cls-2" d="M145.17,298.44l-1.38,0a113,113,0,0,0-18.38,1.08c-.47.05-1,.12-1.41.19a119.61,119.61,0,0,0-41.6,14.5,115.62,115.62,0,0,0-14.59,9.92c-6.36,5.08-12.86,11.09-20.3,13.69a22.15,22.15,0,0,1-2.37.7L10.58,314.61c-.05-.1-.11-.18-.16-.28L9,313.44l.68-.62.4-.35.25-.23.08-.08.23-.2c1.32-1.17,2.65-2.34,4-3.49,0,0,0,0,0,0,10.25-8.79,21.33-16.8,33.28-22.87.36-.19.72-.38,1.1-.55a111.17,111.17,0,0,1,16.77-6.77q4.75-1.45,9.62-2.43a81.18,81.18,0,0,1,25.46-1c16.92,2,33,9.42,43.49,22.57Z"/><path class="cls-3" d="M144.79,298.83a101.5,101.5,0,0,0-62.15-6,43.49,43.49,0,0,0-12.82,4.77,25.1,25.1,0,0,0-9.08,9.58c-2,3.63-3.71,7.59-6.61,10.67a15.34,15.34,0,0,1-11.65,4.65c-5.39-.08-10.43-2.09-15.29-4.24-5.4-2.37-11-4.93-17-4.7-.73,0-.73-1.11,0-1.14,10.49-.39,19,7.1,29.1,8.67,4.71.74,9.67.06,13.27-3.29,3.16-2.93,4.88-7,6.92-10.71A26.77,26.77,0,0,1,68,297.43a40.44,40.44,0,0,1,12.6-5.25,98.27,98.27,0,0,1,30.66-2.59,103.23,103.23,0,0,1,34.09,8.26c.67.29.09,1.27-.57,1Z"/><path class="cls-3" d="M89.26,291a15.22,15.22,0,0,1,11.49-16c.71-.18,1,.92.31,1.09A14.09,14.09,0,0,0,90.4,291C90.46,291.71,89.33,291.71,89.26,291Z"/><path class="cls-3" d="M61.54,305.23a29.38,29.38,0,0,0,20.16,7.12c.73,0,.73,1.11,0,1.13a30.53,30.53,0,0,1-21-7.45c-.56-.48.25-1.28.8-.8Z"/><path class="cls-3" d="M122.33,291.72a8.63,8.63,0,0,0,3,7.62c.56.47-.24,1.27-.8.8a9.63,9.63,0,0,1-3.29-8.42.57.57,0,0,1,.56-.57.56.56,0,0,1,.57.57Z"/><path class="cls-2" d="M712.66,400.18c-9.68-23.87-31.51-44.11-57.22-45.83a118.71,118.71,0,0,1,21.09,78.72c-1,10.76-3.22,22.63,2.83,31.58,3.76,5.57,10.2,8.88,16.78,10.27s13.38,1.06,20.1.73l1.53.7C721.75,450.89,722.35,424.05,712.66,400.18Z"/><path class="cls-3" d="M655.33,354.88a101.41,101.41,0,0,1,39.15,48.63,43.75,43.75,0,0,1,3.06,13.34,25.08,25.08,0,0,1-3,12.84c-1.92,3.71-4.3,7.28-5.28,11.39a15.31,15.31,0,0,0,2.51,12.29c3,4.46,7.49,7.56,12,10.45,4.95,3.2,10.14,6.44,13.27,11.61.38.62,1.33,0,.95-.63-5.44-9-16.38-12-23.24-19.55-3.2-3.53-5.36-8-4.54-12.9.71-4.24,3.17-7.92,5.14-11.66a26.77,26.77,0,0,0,3.41-12.45,40.47,40.47,0,0,0-2.54-13.41,98.22,98.22,0,0,0-14.68-27,103.17,103.17,0,0,0-25.64-23.94c-.61-.4-1.11.62-.51,1Z"/><path class="cls-3" d="M692.4,397a15.22,15.22,0,0,0,7.07-18.4c-.24-.69-1.33-.35-1.08.34A14.11,14.11,0,0,1,691.78,396c-.64.35,0,1.29.62.95Z"/><path class="cls-3" d="M695.75,427.94a29.34,29.34,0,0,1-17-12.93c-.38-.63-1.33,0-1,.62a30.47,30.47,0,0,0,17.75,13.42c.7.2.93-.91.23-1.11Z"/><path class="cls-3" d="M673.62,369.73a8.62,8.62,0,0,1-8,1.71c-.7-.21-.92.91-.23,1.11a9.66,9.66,0,0,0,8.85-1.87.59.59,0,0,0,.17-.79.58.58,0,0,0-.79-.16Z"/><path class="cls-2" d="M595.47,417.7l1.31.43a113.16,113.16,0,0,1,16.94,7.19c.43.21.86.44,1.27.66a119.77,119.77,0,0,1,34.31,27.63,116.31,116.31,0,0,1,10.4,14.26c4.29,6.91,8.38,14.76,14.52,19.71a21.63,21.63,0,0,0,2,1.45l40.58-10.87A2.41,2.41,0,0,1,717,478l1.64-.36c-.14-.27-.3-.54-.44-.81l-.25-.47a2.29,2.29,0,0,1-.16-.31l-.06-.09c0-.1-.1-.18-.14-.27-.85-1.55-1.72-3.09-2.59-4.63l0,0c-6.7-11.73-14.44-23-23.65-32.73-.28-.3-.56-.6-.85-.89a111.8,111.8,0,0,0-13.53-12,97,97,0,0,0-8.24-5.52,81.54,81.54,0,0,0-23.65-9.48c-16.61-3.78-34.25-2.21-48.55,6.65Z"/><path class="cls-3" d="M595.7,418.19a101.47,101.47,0,0,1,60.53,15.26,43.65,43.65,0,0,1,10.48,8.81A25.09,25.09,0,0,1,672,454.33c.7,4.11.94,8.4,2.64,12.27a15.34,15.34,0,0,0,9.41,8.3c5.1,1.73,10.53,1.53,15.82,1.15,5.88-.43,12-1,17.59,1.28.68.27,1.06-.8.38-1.07-9.75-3.9-20.29.29-30.32-1.62-4.69-.89-9.13-3.2-11.4-7.56-2-3.82-2.24-8.24-2.92-12.42a26.74,26.74,0,0,0-4.76-12,40.57,40.57,0,0,0-10.11-9.18,98.11,98.11,0,0,0-28-12.74,103.21,103.21,0,0,0-34.88-3.68c-.73.05-.51,1.17.21,1.12Z"/><path class="cls-3" d="M650.63,429.46a15.23,15.23,0,0,0-5.44-18.95c-.61-.4-1.27.53-.65.93a14.1,14.1,0,0,1,5,17.64c-.31.66.76,1,1.07.38Z"/><path class="cls-3" d="M672,452.19a29.33,29.33,0,0,1-21.38-.07c-.68-.27-1.06.8-.38,1.07a30.52,30.52,0,0,0,22.25,0c.68-.27.19-1.29-.49-1Z"/><path class="cls-3" d="M619.24,419a8.61,8.61,0,0,1-5.35,6.18c-.69.25-.2,1.28.48,1a9.66,9.66,0,0,0,5.94-6.82.6.6,0,0,0-.35-.73.57.57,0,0,0-.72.35Z"/><circle class="cls-4" cx="524.68" cy="471.93" r="9.55"/><circle class="cls-5" cx="558.5" cy="309.34" r="9.55"/><circle class="cls-5" cx="380.87" cy="44.55" r="9.55"/><path class="cls-2" d="M180.83,410.73c0,2.43.08,4.86.25,7.27.18,2.88.49,5.74.91,8.58a106.86,106.86,0,0,0,8,27.73l.6,1.32.3.66c.1.22.21.44.31.65s.27.57.41.85.34.7.52,1l.07.14c.15.3.29.59.45.89a.69.69,0,0,0,.1.19l.53,1,.59,1.09c.48.89,1,1.77,1.49,2.65.15.26.3.52.46.78s.28.48.43.72l.3.49.49.8,1.12,1.77h0c.17.27.35.54.53.8h0c.53.8,1.08,1.6,1.63,2.39h0c.44.64.9,1.26,1.35,1.88h0l.89,1.18.74,1,.16.2h0l.21.26q1.59,2,3.28,4l.18.21c.06.07.13.14.19.22l.29.33.29.33a108.25,108.25,0,0,0,19.83,17.49c1,.67,2,1.32,2.95,1.95l.75.47.22.15.41.25.4.24c.53.33,1.07.65,1.61,1l.41.24.41.23h0q1,.58,2,1.14c.37.2.75.41,1.13.6.86.47,1.73.92,2.6,1.35l.94.46.78.37.22.11.65.3.71.33.8.35c1,.45,2,.88,3,1.29a102.87,102.87,0,0,0,11.08,3.84l.53.15q2.42.68,4.86,1.23c2.85.66,5.72,1.2,8.63,1.62h0l1,.15h.11l1.15.15h.08l1.09.13,1.17.12.9.09h.08l.81.07h0l.7.06c2.79.22,5.59.32,8.43.32,3.07,0,6.12-.12,9.13-.38h0l1.93-.18.5,0h.1l.16,0h.08l.67-.07.75-.09.75-.1.17,0,.54-.08.26,0,.53-.08h0a106,106,0,0,0,16.2-3.65l.84-.26h0l.25-.08c.75-.24,1.49-.49,2.23-.75,1-.34,2-.71,3-1.09l.81-.32,1.63-.65c.92-.37,1.84-.76,2.75-1.16s1.69-.76,2.53-1.16c0,0,.05,0,.07,0l.56-.27h0a107.19,107.19,0,0,0,13.29-7.59q2-1.36,4-2.82c1.06-.79,2.1-1.59,3.14-2.41a108.29,108.29,0,0,0,14.19-13.56h0c.31-.34.6-.69.9-1l.13-.14.56-.67h0c.25-.29.5-.59.74-.89l.16-.19h0l.59-.73.29-.36h0c.59-.74,1.16-1.48,1.73-2.24l.46-.62c.72-1,1.42-2,2.1-2.95h0l.77-1.12.75-1.14.76-1.19,0-.06c.25-.38.5-.78.74-1.17l.57-.94c.12-.21.25-.42.37-.64l.13-.21.84-1.47c.33-.57.65-1.15,1-1.73.12-.24.25-.48.38-.72.05-.08.09-.16.13-.24.15-.28.3-.57.44-.86l.45-.86c.14-.28.29-.57.43-.86l.32-.66s0,0,0,0,.1-.21.14-.31l0-.05c.11-.22.21-.45.32-.67s.27-.59.41-.88.19-.41.28-.62.27-.58.39-.88.27-.6.4-.91c0-.07.07-.15.1-.23s.12-.28.18-.42c.16-.37.32-.75.47-1.12s.35-.85.51-1.27.31-.79.46-1.19l.06-.14a108.7,108.7,0,0,0,5.28-18.93h0A112.31,112.31,0,0,0,396,419c0-.21,0-.41,0-.61.18-2.53.26-5.07.26-7.62,0-1.13,0-2.25-.05-3.37a107.25,107.25,0,0,0-23.78-64.2l-1-1.2c-.33-.4-.67-.79-1-1.18a107.75,107.75,0,0,0-173,12.43c-.49.78-1,1.57-1.45,2.36s-.94,1.6-1.4,2.41A107.26,107.26,0,0,0,180.83,410.73Z"/><path class="cls-3" d="M284.28,340.27a254.61,254.61,0,0,0,54.15,7.81,67.59,67.59,0,0,0,8.3-.06c6.07-.51,11.27-2.41,17-3.46,2.79-.5,5.89-.86,8.69-1.4-.65-.8-1.31-1.6-2-2.38-6,.51-12.17,2.18-18.29,3-10.39,1.32-22-.16-29.92-3.79-3.82-1.77-6.75-4-10.56-5.75a5.07,5.07,0,0,0-1.66-.5,5.75,5.75,0,0,0-3.13.81c-6.39,3.22-15.67,5.85-24.28,4.4C282,339.42,283.23,340,284.28,340.27Z"/><path class="cls-3" d="M246.17,351.62l-.24,0a6.29,6.29,0,0,0,.93-.7Z"/><path class="cls-3" d="M194.61,358c3.59.28,7.21.5,10.85.64a67.45,67.45,0,0,0,8.29-.06c6.07-.51,11.27-2.42,17.06-3.46,5.31-.95,11.75-1.41,15.12-3.53-8.7-1.51-17.73,1.56-26.71,2.7a63.68,63.68,0,0,1-21.76-1.07C196.47,354.77,195.52,356.37,194.61,358Z"/><path class="cls-6" d="M238.13,505.94c.86.47,1.73.92,2.6,1.35l.94.46.78.37.22.11.65.3.71.33.8.35c1,.45,2,.88,3,1.29a102.87,102.87,0,0,0,11.08,3.84l.53.15q2.42.68,4.86,1.23c2.85.66,5.72,1.2,8.63,1.62h0l1,.15h.11l1.15.15h.08l1.09.13,1.17.12.9.09h.08l.81.07h0l.7.06c2.79.22,5.59.32,8.43.32,3.07,0,6.12-.12,9.13-.38h0l1.93-.18.5,0h.1l.16,0h.08l.67-.07.75-.09.75-.1.17,0,.54-.08.26,0,.53-.08h0a106,106,0,0,0,16.2-3.65l.84-.26a40.2,40.2,0,0,0-22-27.86,9.57,9.57,0,0,0,2.73-4.86,9.33,9.33,0,0,0-1.28-7,9,9,0,0,0-5.66-3.88l-14.82-3.1a9.3,9.3,0,0,0-11,9.42C254.89,485.63,244.62,495.48,238.13,505.94Z"/><circle class="cls-7" cx="281.88" cy="429.98" r="30.88"/><path class="cls-8" d="M262.64,456.6c-3.29-2.25-6.66-6.57-8.9-9.81a37,37,0,0,1-5.72-29.6,11.3,11.3,0,0,1,2.65-5.44c1.46-1.44,3.83-2.13,5.61-1.11a10.14,10.14,0,0,1,.41-8,17.8,17.8,0,0,1,5.28-6.28,29.71,29.71,0,0,1,30.28-3.59c1.93.89-1.24-6,.78-5.34a8.29,8.29,0,0,0,6.21-.11c1.9-1,8.19,4.72,7.47,2.72a9.38,9.38,0,0,1,2.17,15.71c-1.6,1.34-3.59,2.12-5.33,3.26a15.3,15.3,0,0,0-4.68,19.74,20,20,0,0,0-6-2.59,6.84,6.84,0,0,0-6.11,1.47,7.7,7.7,0,0,0-1.87,5.81c.07,2.1.57,4.16.63,6.26.16,6.15,3.46,17.84-1.31,21.1C280.49,463.34,267.13,459.67,262.64,456.6Z"/><path class="cls-3" d="M303.11,275.44a4.91,4.91,0,0,1-1.89-.38,4.8,4.8,0,0,1-3-4.5v-4.88a3.88,3.88,0,0,0-3.87-3.87,4.88,4.88,0,0,1-4.87-4.87V190a4.88,4.88,0,0,1,4.87-4.87H516.18A4.87,4.87,0,0,1,521,190v66.95a4.87,4.87,0,0,1-4.86,4.87H320.32a3.86,3.86,0,0,0-2.73,1.13L306.52,274A4.74,4.74,0,0,1,303.11,275.44Z"/><path class="cls-9" d="M303.11,276.44a5.91,5.91,0,0,1-5.89-5.88v-4.88a2.88,2.88,0,0,0-2.87-2.87,5.88,5.88,0,0,1-5.87-5.87V190a5.89,5.89,0,0,1,5.87-5.87H516.18A5.88,5.88,0,0,1,522,190v66.95a5.86,5.86,0,0,1-5.86,5.87H320.32a2.87,2.87,0,0,0-2,.84l-11.06,11.06A5.75,5.75,0,0,1,303.11,276.44Zm-8.76-90.32a3.88,3.88,0,0,0-3.87,3.87v66.95a3.88,3.88,0,0,0,3.87,3.87,4.88,4.88,0,0,1,4.87,4.87v4.88a3.87,3.87,0,0,0,6.6,2.74l11.06-11.06a4.83,4.83,0,0,1,3.44-1.43H516.18a3.86,3.86,0,0,0,3.86-3.87V190a3.86,3.86,0,0,0-3.86-3.87Z"/><path class="cls-6" d="M497.11,215.43H317.24a2.59,2.59,0,0,1,0-5.18H497.11a2.59,2.59,0,1,1,0,5.18Z"/><path class="cls-5" d="M496.78,226.44H317.24a2.59,2.59,0,0,1,0-5.18H496.78a2.59,2.59,0,1,1,0,5.18Z"/><path class="cls-5" d="M496.61,237.45H317.24a2.59,2.59,0,0,1,0-5.18H496.61a2.59,2.59,0,0,1,0,5.18Z"/><path class="cls-2" d="M780.39,174.73c0,2.43-.08,4.86-.25,7.27-.18,2.88-.49,5.74-.91,8.58a107.65,107.65,0,0,1-8,27.73l-.6,1.32-.3.66c-.1.22-.21.44-.31.65s-.27.57-.41.85-.34.7-.52,1.05L769,223c-.15.3-.29.59-.45.89,0,.07-.07.13-.1.19l-.53,1-.59,1.09c-.48.89-1,1.77-1.49,2.65-.15.26-.3.52-.46.78s-.28.48-.43.72l-.3.49-.49.8L763,233.39h0c-.17.27-.35.54-.53.8h0c-.53.8-1.08,1.6-1.63,2.39h0c-.44.64-.9,1.26-1.35,1.88h0l-.89,1.18-.74,1-.16.2h0l-.21.26c-1.06,1.36-2.16,2.69-3.28,4l-.18.21c-.06.07-.13.14-.19.22l-.29.33-.29.33a108.91,108.91,0,0,1-19.83,17.49c-1,.67-2,1.32-3,1.95l-.75.47-.22.15-.41.25-.4.24c-.53.33-1.07.65-1.61,1l-.41.24-.41.23h0q-1,.58-2,1.14c-.37.2-.75.41-1.13.6-.86.47-1.73.92-2.6,1.35l-.94.46-.78.37-.22.11-.65.3-.71.33-.8.35c-1,.45-2,.88-3,1.29a103.63,103.63,0,0,1-11.08,3.84l-.53.15q-2.41.67-4.86,1.23-4.27,1-8.63,1.62h0l-1,.15h-.11l-1.15.15h-.08l-1.09.13-1.17.12-.9.09h-.08l-.81.07h0l-.7.06c-2.79.22-5.59.32-8.43.32-3.07,0-6.12-.12-9.13-.38h0l-1.93-.18-.5,0H661l-.16,0h-.08l-.67-.07-.75-.09-.75-.1-.17,0-.54-.08-.26,0-.53-.08h0a105.44,105.44,0,0,1-16.2-3.65l-.84-.26h0l-.25-.08c-.75-.24-1.49-.49-2.23-.75-1-.34-2-.71-3-1.09l-.81-.32-1.63-.65c-.92-.37-1.84-.76-2.75-1.16s-1.69-.76-2.53-1.16c0,0-.05,0-.07,0l-.56-.27h0a105.76,105.76,0,0,1-13.29-7.59q-2-1.36-4-2.82c-1.06-.79-2.1-1.59-3.14-2.41a107.66,107.66,0,0,1-14.19-13.56h0c-.31-.34-.6-.69-.9-1l-.13-.14-.56-.67h0c-.25-.29-.5-.59-.74-.89l-.16-.19h0l-.59-.73-.29-.36h0c-.59-.74-1.16-1.48-1.73-2.24l-.46-.62c-.72-1-1.42-2-2.1-3h0l-.77-1.12-.75-1.14-.76-1.19,0-.06c-.25-.38-.5-.78-.74-1.17l-.57-.94c-.12-.21-.25-.42-.37-.64a1.2,1.2,0,0,1-.13-.21l-.84-1.47c-.33-.57-.65-1.15-1-1.73-.12-.24-.25-.48-.38-.72-.05-.08-.09-.16-.13-.24-.15-.28-.3-.57-.44-.86l-.45-.86c-.14-.28-.29-.57-.43-.86l-.32-.66,0-.05c0-.11-.1-.21-.14-.31a.05.05,0,0,1,0,0c-.11-.22-.21-.45-.32-.67s-.27-.59-.41-.88-.19-.41-.28-.62-.27-.58-.39-.88-.27-.6-.4-.91a.94.94,0,0,1-.1-.23c-.07-.14-.12-.28-.18-.42-.16-.37-.32-.75-.47-1.12s-.35-.85-.51-1.27-.31-.79-.46-1.19l-.06-.14a108.08,108.08,0,0,1-5.28-18.93h0A106.67,106.67,0,0,1,565.22,183c0-.21,0-.41,0-.61-.18-2.53-.26-5.07-.26-7.62,0-1.13,0-2.25.05-3.37a107.18,107.18,0,0,1,23.78-64.2l1-1.2c.33-.4.67-.79,1-1.18a107.77,107.77,0,0,1,173,12.43c.49.78,1,1.57,1.45,2.36s.94,1.6,1.4,2.41A107.48,107.48,0,0,1,780.39,174.73Z"/><path class="cls-3" d="M676.93,104.27a254.61,254.61,0,0,1-54.15,7.81,67.61,67.61,0,0,1-8.3-.06c-6.07-.51-11.26-2.41-17.05-3.46-2.79-.5-5.89-.86-8.69-1.4.65-.8,1.31-1.6,2-2.38,6,.51,12.18,2.18,18.29,3,10.4,1.32,22-.16,29.92-3.79,3.82-1.77,6.75-4,10.56-5.75a5.07,5.07,0,0,1,1.66-.5,5.75,5.75,0,0,1,3.13.81c6.39,3.22,15.67,5.85,24.28,4.4C679.2,103.42,678,104,676.93,104.27Z"/><path class="cls-3" d="M715,115.62l.24,0a6.29,6.29,0,0,1-.93-.7Z"/><path class="cls-3" d="M766.6,122c-3.59.28-7.21.5-10.85.64a67.45,67.45,0,0,1-8.29-.06c-6.07-.51-11.27-2.42-17.06-3.46-5.3-1-11.75-1.41-15.12-3.53,8.71-1.51,17.73,1.56,26.71,2.7a63.68,63.68,0,0,0,21.76-1.07C764.74,118.77,765.7,120.37,766.6,122Z"/><ellipse class="cls-10" cx="660.5" cy="188.79" rx="32.36" ry="33.08"/><path class="cls-6" d="M723.09,269.94c-.86.47-1.73.92-2.6,1.35l-.94.46-.78.37-.22.11-.65.3-.71.33-.8.35c-1,.45-2,.88-3,1.29a103.63,103.63,0,0,1-11.08,3.84l-.53.15q-2.41.67-4.86,1.23-4.27,1-8.63,1.62h0l-1,.15h-.11l-1.15.15h-.08l-1.09.13-1.17.12-.9.09h-.08l-.81.07h0l-.7.06c-2.79.22-5.59.32-8.43.32-3.07,0-6.12-.12-9.13-.38h0l-1.93-.18-.5,0H661l-.16,0h-.08l-.67-.07-.75-.09-.75-.1-.17,0-.54-.08-.26,0-.53-.08h0a105.44,105.44,0,0,1-16.2-3.65l-.84-.26a40.15,40.15,0,0,1,22-27.86,9.43,9.43,0,0,1-2.73-4.86,9.24,9.24,0,0,1,1.28-7,8.94,8.94,0,0,1,5.66-3.88l14.82-3.1a9.23,9.23,0,0,1,10.8,7.2,10.36,10.36,0,0,1,.2,2.22C706.33,249.63,716.6,259.48,723.09,269.94Z"/><path class="cls-8" d="M747.09,174.45c-5.5-6.42-8.12-14.93-12.51-22.21s-12.05-13.8-20.14-12.11c-5.57,1.17-9.88,6.09-12.06,11.57s-2.58,11.53-3,17.45c.14-12.17-7.88-24-18.93-27.85s-24.26.44-31.2,10.22a16.87,16.87,0,0,0-22.4-.47c-6.21,5.55-7.58,16.11-3,23.19S638.31,184,645.57,180l2.57,2.36c-1.45,5.05,1.35,11,6.06,12.91,3.82,1.55,9.2,1.29,10.63,5.3,1,2.79-.86,5.78-2.85,7.93s-4.34,4.37-4.58,7.35c-.36,4.49,4.28,7.64,8.5,8.58,10.17,2.29,21.46-2.42,27.32-11.4.11-.17.24-.35.37-.52a39.28,39.28,0,0,0,7.9-30c-.33-2.08,0-3.62,1.43-4.11,6.19-2.13,23.51,2.33,28.75,6.36s9.44,9.36,14.49,13.65,11.48,7.59,17.9,6.43c5.13-.94,9.5-4.67,12.44-9.16s4.63-9.74,6.14-15C771.29,187.29,755.75,184.54,747.09,174.45Z"/><path class="cls-2" d="M82.83,107.73c0,2.43.08,4.86.25,7.27.18,2.88.49,5.74.91,8.58a106.86,106.86,0,0,0,8,27.73l.6,1.32.3.66c.1.22.21.44.31.65s.27.57.41.85.34.7.52,1.05c0,0,0,.09.07.14.15.3.29.59.45.89a.69.69,0,0,0,.1.19l.53,1,.59,1.09c.48.89,1,1.77,1.49,2.65.15.26.3.52.46.78s.28.48.43.72l.3.49.49.8,1.12,1.77h0c.17.27.35.54.53.8h0c.53.8,1.08,1.6,1.63,2.39h0c.44.64.9,1.26,1.35,1.88h0l.89,1.18.74,1,.16.2h0l.21.26q1.59,2,3.28,4l.18.21c.06.07.13.14.19.22l.29.33.29.33a108.25,108.25,0,0,0,19.83,17.49c1,.67,2,1.32,2.95,1.95l.75.47.22.15.41.25.4.24c.53.33,1.07.65,1.61,1l.41.24.41.23h0q1,.59,2,1.14c.37.2.75.41,1.13.6.86.47,1.73.92,2.6,1.35l.94.46.78.37.22.11.65.3.71.33.8.35c1,.45,2,.88,3,1.29a102.87,102.87,0,0,0,11.08,3.84l.53.15q2.41.67,4.86,1.23c2.85.66,5.72,1.2,8.63,1.62h0l1,.15h.11l1.15.15h.08l1.09.13,1.17.12.9.09h.08l.81.07h0l.7.06c2.79.22,5.59.32,8.43.32,3.07,0,6.12-.12,9.13-.38h0l1.93-.18.5-.05h.1l.16,0h.08l.67-.07.75-.09.75-.1.17,0,.54-.08.26,0,.53-.08h0a106,106,0,0,0,16.2-3.65l.84-.26h0l.25-.08c.75-.24,1.49-.49,2.23-.75,1-.34,2-.71,3-1.09l.81-.32,1.63-.65c.92-.37,1.84-.76,2.75-1.16s1.69-.76,2.53-1.16c0,0,0,0,.07,0l.56-.27h0a107.19,107.19,0,0,0,13.29-7.59q2-1.37,4-2.82c1.06-.79,2.1-1.59,3.14-2.41a108.29,108.29,0,0,0,14.19-13.56h0c.31-.34.6-.69.9-1l.13-.14.56-.67h0c.25-.29.5-.59.74-.89l.16-.19h0l.59-.73.29-.36h0c.59-.74,1.16-1.48,1.73-2.24l.46-.62c.72-1,1.42-2,2.1-3h0l.77-1.12.75-1.14.76-1.19,0-.06c.25-.38.5-.78.74-1.17l.57-.94c.12-.21.25-.42.37-.64l.13-.21.84-1.47c.33-.57.65-1.15,1-1.73.12-.24.25-.48.38-.72.05-.08.09-.16.13-.24.15-.28.3-.57.44-.86l.45-.86c.14-.28.29-.57.43-.86l.32-.66s0,0,0-.05.1-.21.14-.31l0,0c.11-.22.21-.45.32-.67s.27-.59.41-.88.19-.41.28-.62.27-.58.39-.88.27-.6.4-.91c0-.07.07-.15.1-.23s.12-.28.18-.42c.16-.37.32-.75.47-1.12s.35-.85.51-1.27.31-.79.46-1.19l.06-.14a108.7,108.7,0,0,0,5.28-18.93h0A112.31,112.31,0,0,0,298,116c0-.21,0-.41,0-.61.18-2.53.26-5.07.26-7.62,0-1.13,0-2.25-.05-3.37a107.25,107.25,0,0,0-23.78-64.2l-1-1.2c-.33-.4-.67-.79-1-1.18a107.75,107.75,0,0,0-173,12.43c-.49.78-1,1.57-1.45,2.36s-.94,1.6-1.4,2.41A107.26,107.26,0,0,0,82.83,107.73Z"/><path class="cls-3" d="M186.28,37.27a254.61,254.61,0,0,0,54.15,7.81,67.59,67.59,0,0,0,8.3-.06c6.07-.51,11.27-2.41,17-3.46,2.79-.5,5.89-.86,8.69-1.4-.65-.8-1.31-1.6-2-2.38-6,.51-12.17,2.18-18.29,3-10.39,1.32-22-.16-29.92-3.79-3.82-1.77-6.75-4-10.56-5.75a5.07,5.07,0,0,0-1.66-.5,5.75,5.75,0,0,0-3.13.81c-6.39,3.22-15.67,5.85-24.28,4.4C184,36.42,185.23,37,186.28,37.27Z"/><path class="cls-3" d="M148.17,48.62l-.24,0a6.29,6.29,0,0,0,.93-.7Z"/><path class="cls-3" d="M96.61,55c3.59.28,7.21.5,10.85.64a67.45,67.45,0,0,0,8.29-.06c6.07-.51,11.27-2.42,17.06-3.46,5.31-1,11.75-1.41,15.12-3.53-8.7-1.51-17.73,1.56-26.71,2.7a63.68,63.68,0,0,1-21.76-1.07C98.47,51.77,97.52,53.37,96.61,55Z"/><path class="cls-6" d="M140.13,202.94c.86.47,1.73.92,2.6,1.35l.94.46.78.37.22.11.65.3.71.33.8.35c1,.45,2,.88,3,1.29a102.87,102.87,0,0,0,11.08,3.84l.53.15q2.41.67,4.86,1.23c2.85.66,5.72,1.2,8.63,1.62h0l1,.15h.11l1.15.15h.08l1.09.13,1.17.12.9.09h.08l.81.07h0l.7.06c2.79.22,5.59.32,8.43.32,3.07,0,6.12-.12,9.13-.38h0l1.93-.18.5-.05h.1l.16,0h.08l.67-.07.75-.09.75-.1.17,0,.54-.08.26,0,.53-.08h0a106,106,0,0,0,16.2-3.65l.84-.26a40.2,40.2,0,0,0-22-27.86,9.57,9.57,0,0,0,2.73-4.86,9.33,9.33,0,0,0-1.28-7,9,9,0,0,0-5.66-3.88l-14.82-3.1a9.3,9.3,0,0,0-11,9.42C156.89,182.63,146.62,192.48,140.13,202.94Z"/><circle class="cls-11" cx="198.75" cy="117.64" r="36.07"/><path class="cls-8" d="M193.63,151.78c-9,2.44-19-.8-26-6.95S156.14,130,153.6,121c-1.86-6.6-2.75-13.92.19-20.11s10.84-10.36,16.93-7.24C167,89.23,168.84,82,173.23,78.24s10.43-4.83,16.17-5.41c8.34-.86,16.95-1,24.88,1.75s15.14,8.6,17.62,16.61A12.63,12.63,0,0,0,247,87.78a11.46,11.46,0,0,1-6.31,12.42l12.15-3.94c2.09,4.43-1.57,9.9-6.25,11.32s-9.74-.13-14.19-2.18-8.75-4.64-13.58-5.43-10.5.75-12.73,5.1c-1.17,2.28-1.23,5-1.91,7.43s-2.4,5-4.95,5.23c-1.62.13-3.2-.73-4.81-.56a5.18,5.18,0,0,0-4.05,4,15.24,15.24,0,0,0,0,6l3.09,23.59Z"/></g></g></svg>