<svg xmlns="http://www.w3.org/2000/svg" viewBox="0 0 206.02 242.77"><defs><style>.cls-1{fill:#e6e6e6;}.cls-2{fill:#f2f2f2;}.cls-3{fill:#f1f1f1;}.cls-4{fill:#6c63ff;}.cls-5{opacity:0.2;isolation:isolate;}.cls-6{fill:#3f3d56;}.cls-7{fill:#2f2e41;}.cls-8{fill:#fff;}</style></defs><title>SeasonAsset 1PIC</title><g id="Layer_2" data-name="Layer 2"><g id="Layer_1-2" data-name="Layer 1"><path id="f5e70a17-e793-41c1-a2dd-69237c970f4c-692" class="cls-1" d="M15.76,194.68a24.22,24.22,0,0,0,23.39-4.12c8.19-6.87,10.75-18.19,12.84-28.68l6.18-31-12.94,8.91c-9.3,6.41-18.81,13-25.26,22.3s-9.25,22-4.07,32"/><path id="b90780e1-a28a-4a8c-9c47-a4f5fb7f1aa8-693" class="cls-2" d="M17.76,234.39c-1.63-11.86-3.3-23.88-2.16-35.87,1-10.65,4.27-21.05,10.88-29.58A49.16,49.16,0,0,1,39.1,157.5c1.27-.8,2.43,1.2,1.17,2a46.75,46.75,0,0,0-18.5,22.32c-4,10.25-4.68,21.42-4,32.3.42,6.59,1.31,13.12,2.2,19.66a1.19,1.19,0,0,1-.81,1.42,1.17,1.17,0,0,1-1.42-.81Z"/><path id="b244f669-d0df-4dab-b5dc-a763144460fd-694" class="cls-1" d="M29.48,215.36a17.81,17.81,0,0,0,15.53,8c7.87-.37,14.42-5.86,20.32-11.07l17.45-15.4-11.55-.56c-8.3-.4-16.82-.77-24.74,1.8s-15.2,8.72-16.65,16.91"/><path id="e7416fa3-7efb-4d63-8b89-2e15a53e835a-695" class="cls-2" d="M13.16,241.21C21,227.34,30.09,211.92,46.34,207a36.78,36.78,0,0,1,13.95-1.44c1.49.12,1.12,2.41-.36,2.28a34.49,34.49,0,0,0-22.28,5.89C31.37,218,26.49,224,22.35,230.25c-2.54,3.86-4.81,7.89-7.08,11.9C14.55,243.44,12.42,242.51,13.16,241.21Z"/><path class="cls-3" d="M12.29,149a3.66,3.66,0,0,1-2-4.44,1.86,1.86,0,0,0,.08-.41h0A1.84,1.84,0,0,0,7,142.89H7a1.88,1.88,0,0,0-.21.36,3.66,3.66,0,0,1-4.44,2.05,1.86,1.86,0,0,0-.41-.08H2a1.84,1.84,0,0,0-1.22,3.31h0a2.71,2.71,0,0,0,.37.21,3.66,3.66,0,0,1,2,4.44,1.89,1.89,0,0,0-.08.4h0a1.84,1.84,0,0,0,3.31,1.23h0a2,2,0,0,0,.21-.37,3.66,3.66,0,0,1,4.44-2,1.86,1.86,0,0,0,.41.08h0a1.84,1.84,0,0,0,1.22-3.31h0A2.24,2.24,0,0,0,12.29,149Z"/><circle class="cls-4" cx="118.39" cy="6" r="6"/><path class="cls-4" d="M42.27,79.37A76,76,0,0,1,24.94,64.52a2.51,2.51,0,0,1-.22-3L34,46.68a2.5,2.5,0,0,1,3.44-.8L74.78,69.13a2.51,2.51,0,0,1,.8,3.45L66.32,87.45a2.51,2.51,0,0,1-2.78,1.1A79.18,79.18,0,0,1,42.27,79.37Z"/><path class="cls-5" d="M75.16,72.31,73.61,74.8,49,69.3a2,2,0,0,1-1.15-.74L33,49.23l1.42-2.29a2,2,0,0,1,2.75-.64L74.52,69.56A2,2,0,0,1,75.16,72.31Z"/><path class="cls-4" d="M50.21,66.08a2.53,2.53,0,0,1-.66-.6L27.37,36.58a2.5,2.5,0,0,1,2.54-4l33,7.64a2.56,2.56,0,0,1,1.36.84L88.4,70.17a2.5,2.5,0,0,1-2.47,4L51,66.39A2.7,2.7,0,0,1,50.21,66.08Z"/><polygon class="cls-6" points="24.34 48.92 23.49 48.39 31.16 36.08 57.05 52.2 56.52 53.05 31.48 37.46 24.34 48.92"/><circle class="cls-6" cx="23.39" cy="49.51" r="2"/><circle class="cls-7" cx="146.46" cy="132.13" r="43.07"/><rect class="cls-7" x="170.31" y="156.15" width="13.08" height="23.44" transform="translate(-61.59 116.86) rotate(-31.43)"/><rect class="cls-7" x="147.98" y="169.8" width="13.08" height="23.44" transform="translate(-71.98 107.21) rotate(-31.43)"/><ellipse class="cls-7" cx="179.38" cy="180.38" rx="10.9" ry="4.09" transform="translate(-67.74 120.01) rotate(-31.43)"/><ellipse class="cls-7" cx="156.77" cy="193.56" rx="10.9" ry="4.09" transform="translate(-77.93 110.15) rotate(-31.43)"/><ellipse class="cls-7" cx="105.36" cy="108.01" rx="7.5" ry="23.89" transform="translate(-45.51 106.08) rotate(-44.98)"/><ellipse class="cls-7" cx="191.07" cy="149.01" rx="7.5" ry="23.89" transform="translate(-50.86 135.59) rotate(-34.77)"/><circle class="cls-8" cx="133.28" cy="120.03" r="14.72"/><circle class="cls-6" cx="128.28" cy="115.03" r="4.91"/><path class="cls-8" d="M114.32,144.58c-2.79,4.57.93,10.76,8.31,13.82s15.62,1.83,18.41-2.74h0v0c2.79-4.58-2.62-8-10-11S117.11,140,114.32,144.58Z"/><path class="cls-1" d="M132,78.05c3.85-15.48,20.82-24.6,37.92-20.35s27.83,20.24,24,35.72-16.61,15.54-33.7,11.3S128.17,93.54,132,78.05Z"/></g></g></svg>