<svg version="1.1" xmlns="http://www.w3.org/2000/svg" xmlns:xlink="http://www.w3.org/1999/xlink" width="64px" height="64px" viewBox="0,0,256,256"><g fill="none" fill-rule="nonzero" stroke="none" stroke-width="1" stroke-linecap="butt" stroke-linejoin="miter" stroke-miterlimit="10" stroke-dasharray="" stroke-dashoffset="0" font-family="none" font-weight="none" font-size="none" text-anchor="none" style="mix-blend-mode: normal"><g transform="scale(4,4)"><path d="M47,61h-36c-2.20914,0 -4,-1.79086 -4,-4v-46c0,-2.20914 1.79086,-4 4,-4h42c2.20914,0 4,1.79086 4,4v40z" fill="#d6d6d4"></path><path d="M53,7h-6v5c0,22.09139 -17.90861,40 -40,40v0v5c0,2.20914 1.79086,4 4,4h36l10,-10v-40c0,-2.20914 -1.79086,-4 -4,-4z" fill="#000000" opacity="0.1"></path><path d="M57,11c0,-2.20914 -1.79086,-4 -4,-4h-42c-2.20914,0 -4,1.79086 -4,4v10h50z" fill="#4132de"></path><path d="M53,7h-2.1414c0.08953,0.32595 0.13705,0.662 0.1414,1v0c0,5.52285 -4.47715,10 -10,10h-34v3h50v-10c0,-2.20914 -1.79086,-4 -4,-4z" fill="#000000" opacity="0.2"></path><rect x="18" y="3" width="4" height="9" rx="2" ry="0" fill="#44546c"></rect><rect x="-46" y="-12" transform="rotate(-180)" width="4" height="9" rx="2" ry="0" fill="#44546c"></rect><rect x="24" y="35.999" width="16" height="13.001" fill="#44546c"></rect><path d="M40,35.9992v12.0008c0,0.55228 -0.44772,1 -1,1h-14c-0.55228,0 -1,-0.44772 -1,-1v-12.0008z" fill="#000000" opacity="0.3"></path><path d="M47,42.2774v-7.2774c0,-0.55228 -0.44772,-1 -1,-1c-0.55228,0 -1,0.44772 -1,1v7.2774c-0.61721,0.35425 -0.99844,1.01096 -1,1.7226v1c0,1.10457 0.89543,2 2,2c1.10457,0 2,-0.89543 2,-2v-1c-0.00156,-0.71164 -0.38279,-1.36835 -1,-1.7226z" fill="#ffa912"></path><path d="M47,42.2774v-7.2774c0,-0.55228 -0.44772,-1 -1,-1v7.2774c0.61721,0.35425 0.99844,1.01096 1,1.7226v1c0.00233,0.67927 -0.34148,1.31295 -0.91221,1.6813c-0.57073,0.36835 -1.28978,0.42062 -1.90779,0.1387c0.38594,0.85974 1.32025,1.33281 2.24165,1.13502c0.92141,-0.19779 1.57925,-1.01263 1.57835,-1.95502v-1c-0.00156,-0.71164 -0.38279,-1.36835 -1,-1.7226z" fill="#000000" opacity="0.1"></path><path d="M32,41l-15,-7l15,-6l15,6z" fill="#44546c"></path><path d="M32,28l-1.75,0.7v0c1.85549,0.74222 3.09282,2.5157 3.14888,4.51335c0.05607,1.99765 -1.07984,3.83773 -2.89078,4.68285l-2.5795,1.2038l4.0714,1.9l15,-7z" fill="#000000" opacity="0.15"></path><path d="M39.606,30.0811l-5.8584,2.5131c-0.12144,0.05228 -0.2313,0.12815 -0.3232,0.2232c-0.78958,-0.4608 -1.79112,-0.32756 -2.43275,0.32366c-0.64163,0.65122 -0.76002,1.65462 -0.28756,2.43728c0.47246,0.78266 1.41549,1.14534 2.29063,0.88094c0.87514,-0.2644 1.45961,-1.08855 1.41968,-2.00189c0.04091,-0.00568 0.0814,-0.01406 0.1212,-0.0251l5.8584,-2.5132c0.33541,-0.13607 0.5711,-0.44276 0.61626,-0.80188c0.04516,-0.35913 -0.10727,-0.71462 -0.39854,-0.92949c-0.29127,-0.21487 -0.67592,-0.25557 -1.00572,-0.10642z" fill="#ffa912"></path><path d="M40.8456,30.5c-0.10134,0.18479 -0.25977,0.33182 -0.4516,0.4191l-5.8584,2.5132c-0.0398,0.01104 -0.08029,0.01942 -0.1212,0.0251c0.05973,1.02985 -0.67822,1.93427 -1.69911,2.08241c-1.02089,0.14813 -1.98546,-0.50925 -2.22089,-1.51361c-0.20511,0.75953 0.05519,1.56869 0.66467,2.06616c0.60948,0.49748 1.45438,0.59042 2.15743,0.23732c0.70305,-0.3531 1.13301,-1.08633 1.0979,-1.87228c0.04091,-0.00568 0.0814,-0.01406 0.1212,-0.0251l5.8584,-2.5132c0.24378,-0.10441 0.43607,-0.30143 0.53452,-0.54768c0.09845,-0.24625 0.09499,-0.52153 -0.00962,-0.76522c-0.02192,-0.03707 -0.04642,-0.07256 -0.0733,-0.1062z" fill="#000000" opacity="0.1"></path><path d="M47,61v-6c0,-2.20914 1.79086,-4 4,-4h6z" fill="#44546c"></path></g></g></svg>