<svg xmlns="http://www.w3.org/2000/svg" viewBox="0 0 470 415.33"><defs><style>.cls-1{fill:#f0f0f0;}.cls-2{fill:#ccc;}.cls-3{fill:#e4e4e4;}.cls-4{fill:#fff;}.cls-5{fill:#e6e6e6;}.cls-6{fill:#3f3d56;}.cls-7{fill:#ffb6b6;}.cls-8{fill:#6c63ff;}.cls-9{fill:#cacaca;}.cls-10{fill:#ffb8b8;}.cls-11{fill:#2f2e41;}</style></defs><title>WorkAsset 1PIC</title><g id="Layer_2" data-name="Layer 2"><g id="Layer_1-2" data-name="Layer 1"><path class="cls-1" d="M48.75,164.58v-130a7,7,0,0,1,14,0v130a7,7,0,0,1-14,0Z"/><path class="cls-1" d="M32,164.58v-130a7,7,0,0,1,14,0v130a7,7,0,0,1-14,0Z"/><path class="cls-1" d="M15.25,164.58v-130a7,7,0,0,1,14,0v130a7,7,0,0,1-14,0Z"/><path class="cls-1" d="M351.75,167.9V99.51c0-2,3.14-3.68,7-3.68s7,1.65,7,3.68V167.9c0,2-3.14,3.68-7,3.68S351.75,169.93,351.75,167.9Z"/><path class="cls-1" d="M335,167.9V99.51c0-2,3.14-3.68,7-3.68s7,1.65,7,3.68V167.9c0,2-3.14,3.68-7,3.68S335,169.93,335,167.9Z"/><path class="cls-1" d="M318.25,167.9V99.51c0-2,3.14-3.68,7-3.68s7,1.65,7,3.68V167.9c0,2-3.14,3.68-7,3.68S318.25,169.93,318.25,167.9Z"/><path class="cls-2" d="M459.16,117.61a1.49,1.49,0,0,0-.65-1L405.73,81.74a3.9,3.9,0,0,0,1.9-1.66h0a4,4,0,0,0-1.47-5.46l-4.33-2.5a4,4,0,0,0-6,3.1L357.77,50.08A23,23,0,0,0,343.5,36.92V25.83h-14V36.92a23,23,0,0,0-16,21.91v3h14a9,9,0,0,0,18,0h14v-3a23.78,23.78,0,0,0-.4-4.29l96.36,63.62-40,48.67h-.93c-3.19,0-6.29.08-9.24.21a3.9,3.9,0,0,0,.23-1.55,4,4,0,0,0-4.2-3.78l-5,.26a4,4,0,0,0-3.25,6c-8.83.94-14.55,2.23-14.55,2.89,0,1.08,15.36,0,34.59,0a1.51,1.51,0,0,0,1.91.92,1.63,1.63,0,0,0,.66-.47l.37-.45c19.17.06,34.47,1.08,34.47,0s-13.6-3.54-31.23-3.94l39.57-48.11A1.46,1.46,0,0,0,459.16,117.61Z"/><path class="cls-3" d="M460.61,415.33H337.39a9.41,9.41,0,0,1-9.39-9.39V203.72a8.41,8.41,0,0,0-8.39-8.39H31.39A8.41,8.41,0,0,0,23,203.72V405.94a9.41,9.41,0,0,1-9.39,9.39H9.39A9.41,9.41,0,0,1,0,405.94V192.83a22.52,22.52,0,0,1,22.5-22.5h425a22.53,22.53,0,0,1,22.5,22.5V405.94A9.41,9.41,0,0,1,460.61,415.33Z"/><rect class="cls-4" x="328.5" y="222.83" width="141" height="6"/><rect class="cls-4" x="328.5" y="303.83" width="141" height="6"/><path class="cls-5" d="M211.78,169.34l-4.05-1.7L205,147.32h-37l-3,20.23-3.63,1.82a.86.86,0,0,0,.39,1.63h49.77a.86.86,0,0,0,.86-.86A.87.87,0,0,0,211.78,169.34Z"/><path class="cls-2" d="M277.57,150H95.72a3.6,3.6,0,0,1-3.6-3.6V120.78H281.17v25.64A3.6,3.6,0,0,1,277.57,150Z"/><path class="cls-6" d="M281.36,132.9H92V23.17a4.34,4.34,0,0,1,4.34-4.34H277a4.36,4.36,0,0,1,4.35,4.34Z"/><path class="cls-4" d="M270,124.93H103.27a3.35,3.35,0,0,1-3.35-3.34V30.14a3.36,3.36,0,0,1,3.35-3.35H270a3.36,3.36,0,0,1,3.35,3.35v91.45A3.35,3.35,0,0,1,270,124.93Z"/><path class="cls-7" d="M268.88,93.1a13.74,13.74,0,0,0-.09,2.31l-56.08,40.8-15.4-6.82L184,151.29,210.08,166a11.17,11.17,0,0,0,13.31-1.74l56.43-55.12a14.68,14.68,0,1,0-10.61-17.84,13.74,13.74,0,0,0-.33,1.79Z"/><path class="cls-8" d="M210.9,137.7,194.55,165a6.31,6.31,0,0,1-8.64,2.16,6.46,6.46,0,0,1-.75-.54l-24.48-20.1a17.48,17.48,0,0,1,18.07-29.92l29.17,12.1a6.29,6.29,0,0,1,3.4,8.22,5.87,5.87,0,0,1-.42.83Z"/><rect class="cls-9" x="140.84" y="321.42" width="32.05" height="53.12"/><rect class="cls-9" x="204.03" y="332.17" width="7.33" height="92.96" transform="translate(-222.26 337.9) rotate(-55.84)"/><rect class="cls-9" x="59.55" y="374.99" width="92.96" height="7.33" transform="matrix(0.83, -0.56, 0.56, 0.83, -194.32, 124.87)"/><circle class="cls-9" cx="246.15" cy="404.76" r="10.07"/><circle class="cls-9" cx="156.4" cy="404.76" r="10.07"/><circle class="cls-9" cx="67.57" cy="404.76" r="10.07"/><rect class="cls-9" x="152.74" y="352.56" width="7.33" height="52.2"/><rect class="cls-9" x="149.99" y="274.72" width="13.74" height="70.52"/><path class="cls-6" d="M117.48,285.71V269.22a11.47,11.47,0,0,1,11.45-11.45h61.36a11.47,11.47,0,0,1,11.45,11.45v16.49a11.46,11.46,0,0,1-11.45,11.44H128.93A11.46,11.46,0,0,1,117.48,285.71Z"/><polygon class="cls-10" points="228.3 398.38 245.27 398.38 253.34 354.37 228.3 354.37 228.3 398.38"/><path class="cls-11" d="M224,414.83h54.71v-.69a21.3,21.3,0,0,0-21.3-21.3H224Z"/><path class="cls-11" d="M253.68,371.09l33.83-75.86a27.8,27.8,0,0,0-12.2-35.69l-73.38-39.35-33.48-2.84-30.89-2.81-.22.38c-.29.48-6.93,12-2.44,24.52,3.41,9.54,12.26,17,26.32,22.15,32.83,12,70.75,22.32,85.52,26.19a4.79,4.79,0,0,1,3.07,2.43,4.9,4.9,0,0,1,.27,3.88L218.65,364.7a6.22,6.22,0,0,0,3.7,8,6.49,6.49,0,0,0,1.57.35l23.48,1.71.6,0A6.22,6.22,0,0,0,253.68,371.09Z"/><polygon class="cls-10" points="217.23 398.38 234.2 398.38 242.27 354.37 217.23 354.37 217.23 398.38"/><path class="cls-11" d="M212.9,414.83h54.72v-.69a21.3,21.3,0,0,0-21.3-21.3H212.9Z"/><path class="cls-11" d="M241.23,375.24l33.83-75.86a27.81,27.81,0,0,0-12.21-35.69l-73.38-39.34L156,221.5l-24.19-2.1v-.33c-.28.48-6.93,12-2.44,24.53,3.41,9.54,5.35,17,19.41,22.15,32.82,12,70.74,22.32,85.52,26.18a4.78,4.78,0,0,1,3.06,2.44,4.84,4.84,0,0,1,.27,3.87l-31.43,70.61a6.23,6.23,0,0,0,3.71,8,6,6,0,0,0,1.56.36L235,378.91l.59,0A6.22,6.22,0,0,0,241.23,375.24Z"/><circle class="cls-10" cx="186.93" cy="40.63" r="34"/><path class="cls-2" d="M304.12,171.24a232,232,0,0,0,33.32-62.19,6,6,0,0,0-2.81-7.17L286,75.81a5.92,5.92,0,0,0-5.16-.21,6,6,0,0,0-3.4,4,141.68,141.68,0,0,1-31.07,58,6,6,0,0,0-1.44,5,5.89,5.89,0,0,0,3,4.17l48.65,26.07A6,6,0,0,0,304.12,171.24Z"/><path class="cls-4" d="M300.8,168.74a1.8,1.8,0,0,1-2.25.47L249.9,143.14a1.75,1.75,0,0,1-.9-1.24,1.85,1.85,0,0,1,.45-1.56,145.67,145.67,0,0,0,32-59.69,1.86,1.86,0,0,1,1.05-1.24,1.74,1.74,0,0,1,1.54.06l48.64,26.07a1.78,1.78,0,0,1,.86,2.13A227.68,227.68,0,0,1,300.8,168.74Z"/><path class="cls-2" d="M283.78,104.24l33.55,19.66c3.34,2,6.36-3.22,3-5.18L286.81,99.06c-3.34-2-6.37,3.23-3,5.18Z"/><path class="cls-2" d="M277.78,115.24l33.55,19.66c3.34,2,6.36-3.22,3-5.18l-33.55-19.66c-3.34-2-6.37,3.23-3,5.18Z"/><path class="cls-2" d="M273.06,126.2l30.52,18.11c3,1.8,6.28-1.92,3.25-3.72l-30.52-18.12C273.28,120.67,270,124.4,273.06,126.2Z"/><path class="cls-2" d="M263.78,137.24l33.55,19.66c3.34,2,6.36-3.22,3-5.18l-33.55-19.66c-3.34-2-6.37,3.23-3,5.18Z"/><path class="cls-8" d="M206.53,223l-67.27-.4,0-.48c-1.28-33.76,2.84-64.33,12.61-93.48l.44-3.4c1.67-13,3-23.39,15.39-27.25a8.83,8.83,0,0,1-1.75-4.73,8.61,8.61,0,0,1,2.14-6.3,8.31,8.31,0,0,1,5.76-2.81l23.94-.81a5.57,5.57,0,0,1,3.48,1.18A9.56,9.56,0,0,1,204,96.54c-.28.56-.39.82-.43.93.85,4.46,3.38,9.76,6.05,15.37,3.83,8,8.16,17.12,9.28,26.85a49.28,49.28,0,0,1-.74,15.75,30.76,30.76,0,0,0-.34,8.46c.22,4.18.42,8.13-1.94,11.94-.6,1-1.29,2.14-2.1,3.37l-3.33,7.94Z"/><path class="cls-6" d="M105.58,270.18V132.72a16.91,16.91,0,0,1,16.89-16.89h4.68A16.91,16.91,0,0,1,144,132.72V270.18a16.92,16.92,0,0,1-16.89,16.9h-4.68A16.92,16.92,0,0,1,105.58,270.18Z"/><path class="cls-7" d="M286,146.44a16.59,16.59,0,0,0-1.3,1.92l-69.15,5L206,139.49l-22.88,11.57,14.4,26.27a11.16,11.16,0,0,0,12.22,5.55l77-17a14.68,14.68,0,1,0,.4-20.75A17.44,17.44,0,0,0,286,146.44Z"/><path class="cls-8" d="M213.2,153.72l-28.27,14.51a6.29,6.29,0,0,1-8.47-2.72,5.7,5.7,0,0,1-.36-.85l-10.19-30a17.47,17.47,0,0,1,7.61-23.43c-12.53,6.43,13.57-11.84,23.53,7.57l18.39,25.67a6.3,6.3,0,0,1-1.45,8.78,6.4,6.4,0,0,1-.79.48Z"/><path class="cls-11" d="M171.58,73.69c-2.05,0-4.31-1-6.85-3a43.51,43.51,0,0,1-13.27-51c1.85-4.42,5.31-10.43,11.29-13.95,4.3-2.53,9.35-3.44,13.75-4.1,3.8-.57,7.66-1,11.45-1.35,4.53-.39,9.77-.65,14.55,1.17,3.5,1.33,6.48,3.67,9.36,6,1,.79,2,1.61,3.08,2.36a22.68,22.68,0,0,0,8.53,4.15,4.65,4.65,0,0,1,3.12,2.29,4.72,4.72,0,0,1,.34,3.92c-.45,1.26-.86,2.4,0,3.63a3.24,3.24,0,0,0,2.71,1.38,1.7,1.7,0,0,1,1.6,2.33l-.13.34a2.18,2.18,0,0,1,1.7,1.1,2.23,2.23,0,0,1-.41,2.77,22.42,22.42,0,0,1-10.92,5.72,21.91,21.91,0,0,1-8.5,0l-.45-.09.06-.5C201.2,32.73,191,39.6,185.12,47.45l-.84-.53a2.46,2.46,0,0,0,.11-1.9,3,3,0,0,0-1.46-1.72,3.79,3.79,0,0,0-4.14.83,5.61,5.61,0,0,0-1.55,4.28,15.46,15.46,0,0,0,1.25,4.81c.28.73.56,1.48.79,2.24a18.31,18.31,0,0,1-1,13c-.88,1.86-2.48,4.23-5.07,5A5.84,5.84,0,0,1,171.58,73.69Z"/></g></g></svg>